<svg width="27" height="42" viewBox="0 0 27 42" fill="none" xmlns="http://www.w3.org/2000/svg">
<path d="M9.29048 20.9674C9.29048 24.0742 10.5197 27.0538 12.7077 29.2506C14.8957 31.4475 17.8633 32.6817 20.9576 32.6817V32.6817C21.2372 32.6742 21.5154 32.7227 21.7761 32.8244C22.0368 32.9261 22.2747 33.079 22.4759 33.2741C22.677 33.4693 22.8375 33.7027 22.9477 33.9607C23.058 34.2188 23.1159 34.4964 23.1181 34.7772V41.0248C23.083 41.3546 22.9276 41.6598 22.6819 41.8816C22.4363 42.1035 22.1176 42.2263 21.7872 42.2266H19.4668C19.1301 42.2229 18.8073 42.0917 18.5629 41.8592C18.3185 41.6267 18.1706 41.31 18.1488 40.9727L17.8075 35.7664C16.1675 35.4006 14.6002 34.7611 13.1709 33.8748L8.97504 37.2112C8.71513 37.417 8.38851 37.519 8.05817 37.4973C7.72782 37.4757 7.41715 37.332 7.18608 37.094L5.1249 34.9811C4.93449 34.7854 4.80807 34.536 4.76251 34.2662C4.71696 33.9964 4.75444 33.7191 4.86995 33.4713C4.92391 33.3528 4.99529 33.2431 5.08169 33.1459L8.5386 29.2759C8.47378 29.1717 8.40897 29.0719 8.34847 28.9635C8.28797 28.855 8.26205 28.8246 8.22316 28.7552C7.42979 27.4402 6.84656 26.0084 6.4947 24.5121C6.4947 24.4817 6.4947 24.447 6.4731 24.4166C6.45269 24.3557 6.4368 24.2933 6.42556 24.2301L1.24019 23.6791C0.901299 23.6527 0.584932 23.4984 0.354813 23.2473C0.124693 22.9961 -0.00208025 22.6667 2.58261e-05 22.3254V19.3622C-0.000620165 19.0216 0.128275 18.6936 0.360379 18.4453C0.592482 18.1969 0.910276 18.0469 1.24884 18.0259L6.40828 17.6831C6.72051 16.2096 7.25995 14.7941 8.0071 13.4877V13.4877C8.09785 13.3185 8.19723 13.1536 8.30094 12.9888L5.1854 8.99725C5.13719 8.93657 5.09521 8.87116 5.06008 8.80202V8.80202C4.92015 8.54646 4.86762 8.25187 4.91055 7.96344C4.95349 7.67502 5.08951 7.40872 5.29775 7.20541L7.38918 5.13156C7.63119 4.89225 7.95496 4.75454 8.29454 4.74648C8.63413 4.73842 8.96401 4.86061 9.21702 5.08818L12.8079 8.31609C14.3244 7.2965 16.0124 6.56151 17.7902 6.14679L18.3433 0.910107C18.3784 0.580252 18.5338 0.275086 18.7795 0.0532527C19.0251 -0.168581 19.3438 -0.291429 19.6742 -0.291685H22.6255C22.9647 -0.292333 23.2914 -0.162917 23.5387 0.070124C23.7861 0.303165 23.9355 0.622243 23.9564 0.96217L24.2935 6.11209C25.0442 6.26388 25.7813 6.47719 26.4973 6.74986L25.7972 7.61758C25.3503 8.19009 24.7691 8.64263 24.1056 8.93484C23.4421 9.22705 22.7169 9.34984 21.9946 9.29228C21.6533 9.25323 21.3076 9.25323 20.9576 9.25323C17.8633 9.25323 14.8957 10.4874 12.7077 12.6842C10.5197 14.8811 9.29048 17.8606 9.29048 20.9674V20.9674Z" fill="#00FFC2"/>
<path d="M26.4973 6.74986L24.9546 8.68921C24.7265 8.97674 24.4258 9.19762 24.0838 9.32886C23.7419 9.4601 23.3711 9.49691 23.0101 9.43545C20.3456 8.94981 17.5957 9.40997 15.2321 10.737L12.8036 8.2944C14.3201 7.27481 16.0081 6.53982 17.7859 6.1251L18.3433 0.910107C18.3785 0.580252 18.5338 0.275086 18.7795 0.0532527C19.0251 -0.168581 19.3438 -0.291429 19.6742 -0.291685H22.6255C22.9648 -0.292333 23.2914 -0.162917 23.5388 0.070124C23.7861 0.303165 23.9355 0.622243 23.9565 0.96217L24.2935 6.11209C25.0442 6.26388 25.7813 6.47719 26.4973 6.74986Z" fill="#00FFC2"/>
<path d="M23.1182 32.6817V41.0248C23.083 41.3547 22.9276 41.6598 22.682 41.8817C22.4363 42.1035 22.1177 42.2263 21.7873 42.2266H19.4668C19.1301 42.2229 18.8073 42.0917 18.5629 41.8592C18.3185 41.6267 18.1706 41.3101 18.1489 40.9727L17.8075 35.7664C16.1675 35.4006 14.6002 34.7612 13.1709 33.8748L15.9883 31.558C17.5414 32.2974 19.2387 32.6812 20.9576 32.6817H23.1182Z" fill="#00FFC2"/>
<path d="M9.1738 29.3887L4.85266 33.4756C4.90662 33.3571 4.978 33.2475 5.0644 33.1502L8.52131 29.2802C8.45649 29.1761 8.39168 29.0763 8.33118 28.9678C8.27068 28.8594 8.24476 28.829 8.20587 28.7596L9.1738 29.3887Z" fill="white"/>
<path d="M6.39958 24.2127L1.21421 23.6617C0.961346 23.6341 0.721538 23.5348 0.522827 23.3754L6.90515 23.6617L6.47304 24.4991L6.39958 24.2127Z" fill="white"/>
<path d="M6.8879 18.2558L0.725952 18.1691C0.888746 18.0862 1.06665 18.0375 1.24881 18.0259L6.40825 17.6832C6.40825 17.6007 6.44714 17.5183 6.46875 17.4359L6.8879 18.2558Z" fill="white"/>
<path d="M8.01572 13.479C8.10646 13.3098 8.20585 13.1449 8.30956 12.9801L5.18537 8.99724C5.13717 8.93656 5.09518 8.87115 5.06006 8.802L9.0744 12.9757L8.01572 13.479Z" fill="white"/>
</svg>
