<svg width="20" height="15" viewBox="0 0 20 15" fill="none" xmlns="http://www.w3.org/2000/svg">
<path d="M18.4 3.57149H3.82457L3.28571 0.811493C3.25499 0.660825 3.17241 0.525703 3.05234 0.429645C2.93226 0.333587 2.78231 0.282678 2.62857 0.285778H0V1.60006H2.08971L4.6 14.2172C4.63072 14.3679 4.71331 14.503 4.83338 14.5991C4.95345 14.6951 5.10341 14.746 5.25714 14.7429H17.0857V13.4286H5.796L5.25714 10.8001H17.0857C17.2376 10.8038 17.3861 10.7547 17.5059 10.6613C17.6257 10.5678 17.7095 10.4357 17.7429 10.2875L19.0571 4.37321C19.0792 4.2757 19.0787 4.17446 19.0556 4.07718C19.0326 3.97991 18.9877 3.88916 18.9244 3.81186C18.861 3.73455 18.7808 3.67271 18.69 3.63106C18.5991 3.58941 18.4999 3.56904 18.4 3.57149ZM16.56 9.48578H5.00743L4.08743 4.88578H17.5786L16.56 9.48578Z" fill="white"/>
</svg>
