<svg width="26" height="34" viewBox="0 0 26 34" fill="none" xmlns="http://www.w3.org/2000/svg">
<g clip-path="url(#clip0_17_21358)">
<path d="M11.664 33.314C1.82609 19.3263 0 17.8907 0 12.75C0 5.70835 5.82028 0 13 0C20.1797 0 26 5.70835 26 12.75C26 17.8907 24.1739 19.3263 14.336 33.314C13.6904 34.2287 12.3095 34.2286 11.664 33.314ZM13 18.0625C15.9916 18.0625 18.4167 15.684 18.4167 12.75C18.4167 9.81597 15.9916 7.4375 13 7.4375C10.0084 7.4375 7.58333 9.81597 7.58333 12.75C7.58333 15.684 10.0084 18.0625 13 18.0625Z" fill="#00CF9D"/>
</g>
<defs>
<clipPath id="clip0_17_21358">
<rect width="26" height="34" fill="white"/>
</clipPath>
</defs>
</svg>
