<svg width="18" height="18" viewBox="0 0 18 18" fill="none" xmlns="http://www.w3.org/2000/svg">
<path d="M5.625 16.875C6.24632 16.875 6.75 16.3713 6.75 15.75C6.75 15.1287 6.24632 14.625 5.625 14.625C5.00368 14.625 4.5 15.1287 4.5 15.75C4.5 16.3713 5.00368 16.875 5.625 16.875Z" fill="black"/>
<path d="M13.5 16.875C14.1213 16.875 14.625 16.3713 14.625 15.75C14.625 15.1287 14.1213 14.625 13.5 14.625C12.8787 14.625 12.375 15.1287 12.375 15.75C12.375 16.3713 12.8787 16.875 13.5 16.875Z" fill="black"/>
<path d="M2.80125 1.57725C2.77577 1.44978 2.70693 1.33507 2.60644 1.25262C2.50594 1.17018 2.37999 1.12508 2.25 1.125H0V2.25H1.78875L3.94875 13.0477C3.97423 13.1752 4.04307 13.2899 4.14356 13.3724C4.24406 13.4548 4.37001 13.4999 4.5 13.5H14.625V12.375H4.96125L4.51125 10.125H14.625C14.753 10.125 14.8771 10.0813 14.9769 10.0013C15.0767 9.92118 15.1462 9.80947 15.174 9.68456L16.4497 3.9375H15.2983L14.1739 9H4.28625L2.80125 1.57725Z" fill="black"/>
<path d="M12.1421 3.70462L10.125 5.72175V1.125H9V5.72175L6.98287 3.70462L6.1875 4.5L9.5625 7.875L12.9375 4.5L12.1421 3.70462Z" fill="black"/>
</svg>
