<svg width="32" height="32" viewBox="0 0 32 32" fill="none" xmlns="http://www.w3.org/2000/svg">
<path d="M29.4819 8.62401L19.4819 3.12401C19.3343 3.04278 19.1685 3.00018 18.9999 3.00018C18.8314 3.00018 18.6656 3.04278 18.5179 3.12401L8.51793 8.62401C8.36115 8.71034 8.2304 8.83716 8.13934 8.99124C8.04828 9.14533 8.00024 9.32103 8.00024 9.50001C8.00024 9.67899 8.04828 9.85469 8.13934 10.0088C8.2304 10.1629 8.36115 10.2897 8.51793 10.376L17.9999 15.591V26.31L14.9639 24.64L13.9999 26.391L18.5179 28.876C18.6655 28.9574 18.8314 29.0001 18.9999 29.0001C19.1685 29.0001 19.3343 28.9574 19.4819 28.876L29.4819 23.376C29.6388 23.2897 29.7696 23.1629 29.8607 23.0088C29.9518 22.8547 29.9999 22.679 29.9999 22.5V9.50001C29.9999 9.321 29.9518 9.14528 29.8607 8.99119C29.7696 8.8371 29.6388 8.7103 29.4819 8.62401ZM18.9999 5.14201L26.9249 9.50001L18.9999 13.858L11.0749 9.50001L18.9999 5.14201ZM27.9999 21.909L19.9999 26.309V15.59L27.9999 11.19V21.909Z" fill="black"/>
<path d="M10 16H2V14H10V16ZM12 24H4V22H12V24ZM14 20H6V18H14V20Z" fill="black"/>
</svg>
