<svg width="17" height="15" viewBox="0 0 17 15" fill="none" xmlns="http://www.w3.org/2000/svg">
<path d="M16.9002 1.68141C16.9 1.32839 16.763 0.989204 16.5179 0.735124C16.2728 0.481044 15.9388 0.33186 15.586 0.318926V0.316406H1.53826V0.320186C1.5139 0.318926 1.48975 0.316406 1.46518 0.316406C1.18289 0.31659 0.907591 0.404294 0.677211 0.56744C0.446831 0.730585 0.2727 0.961146 0.1788 1.22737C0.0849002 1.49359 0.0758509 1.78238 0.152899 2.05396C0.229946 2.32554 0.3893 2.56655 0.609014 2.7438L6.93841 9.07299L6.9382 12.9788V13.0111H6.94135C6.94666 13.1316 6.98244 13.2487 7.04536 13.3515C7.10827 13.4544 7.19626 13.5396 7.30108 13.5991L7.29919 13.6025L8.95231 14.5569C8.96617 14.5666 8.9815 14.5735 8.99599 14.5821L9.00187 14.5855V14.5853C9.10729 14.6462 9.22825 14.6838 9.35887 14.6838C9.45309 14.6838 9.54638 14.6653 9.63343 14.6292C9.72047 14.5932 9.79957 14.5403 9.86619 14.4737C9.9328 14.4071 9.98564 14.328 10.0217 14.241C10.0577 14.1539 10.0763 14.0606 10.0762 13.9664C10.0762 13.9475 10.072 13.9297 10.0708 13.9112H10.0762V9.07887L16.4638 2.69151L16.4575 2.68521C16.597 2.55784 16.7084 2.40279 16.7846 2.22996C16.8608 2.05712 16.9002 1.8703 16.9002 1.68141ZM4.77247 3.04641H4.77541L4.77562 3.04956L4.77247 3.04641Z" fill="black"/>
</svg>
