<svg width="207" height="333" viewBox="0 0 207 333" fill="none" xmlns="http://www.w3.org/2000/svg">
<path d="M72.3331 166.388C72.3331 190.704 81.9034 214.024 98.9385 231.218C115.974 248.412 139.078 258.072 163.17 258.072C165.347 258.013 167.513 258.393 169.543 259.189C171.573 259.985 173.425 261.182 174.991 262.709C176.557 264.236 177.806 266.063 178.665 268.083C179.523 270.103 179.974 272.275 179.991 274.473V323.371C179.718 325.953 178.508 328.341 176.595 330.077C174.683 331.813 172.202 332.775 169.629 332.777H151.563C148.942 332.748 146.428 331.721 144.525 329.901C142.623 328.082 141.471 325.604 141.302 322.963L138.644 282.215C125.875 279.352 113.673 274.347 102.545 267.41L69.8771 293.523C67.8536 295.134 65.3106 295.932 62.7386 295.763C60.1667 295.593 57.7479 294.469 55.9488 292.606L39.901 276.069C38.4185 274.537 37.4343 272.585 37.0796 270.473C36.7249 268.362 37.0167 266.192 37.9161 264.252C38.3362 263.325 38.8919 262.466 39.5646 261.705L66.4792 231.416C65.9745 230.601 65.4699 229.82 64.9989 228.971C64.5279 228.122 64.326 227.884 64.0232 227.341C57.8462 217.049 53.3054 205.843 50.5659 194.131C50.5659 193.893 50.5659 193.622 50.3977 193.384C50.2388 192.907 50.1151 192.419 50.0276 191.924L9.6558 187.611C7.01726 187.405 4.55412 186.198 2.76247 184.232C0.970828 182.266 -0.0161963 179.688 0.000201075 177.017V153.824C-0.00482843 151.159 0.998716 148.592 2.80581 146.648C4.6129 144.704 7.08716 143.53 9.72309 143.366L49.8931 140.683C52.324 129.151 56.5239 118.072 62.3411 107.847C63.0476 106.523 63.8214 105.232 64.6288 103.942L40.372 72.7016C39.9967 72.2266 39.6699 71.7147 39.3964 71.1735C38.3069 69.1734 37.8979 66.8677 38.2322 64.6103C38.5665 62.3529 39.6255 60.2686 41.2468 58.6774L57.5301 42.446C59.4144 40.573 61.9351 39.4952 64.579 39.4321C67.2229 39.369 69.7913 40.3254 71.7612 42.1065L99.7187 67.3704C111.526 59.3904 124.668 53.6378 138.509 50.3919L142.816 9.40606C143.089 6.82439 144.299 4.43595 146.212 2.69973C148.124 0.963513 150.605 0.00201701 153.178 1.89893e-05H176.156C178.797 -0.00505741 181.34 1.00784 183.266 2.83178C185.192 4.65572 186.355 7.15304 186.518 9.81354L189.142 50.1203C194.987 51.3083 200.726 52.9778 206.3 55.1119L200.85 61.9033C197.37 66.3841 192.845 69.926 187.679 72.2131C182.514 74.5001 176.867 75.4612 171.244 75.0106C168.586 74.705 165.895 74.705 163.17 74.705C139.078 74.705 115.974 84.3645 98.9385 101.558C81.9034 118.752 72.3331 142.072 72.3331 166.388Z" fill="#F4F4F4"/>
<path d="M206.3 55.1119L194.29 70.2906C192.514 72.541 190.173 74.2697 187.51 75.2969C184.847 76.3241 181.961 76.6122 179.15 76.1312C158.405 72.3303 136.995 75.9318 118.593 86.3183L99.6851 67.2006C111.492 59.2206 124.635 53.468 138.476 50.2222L142.816 9.40606C143.089 6.82439 144.299 4.43595 146.212 2.69973C148.124 0.963513 150.605 0.00201701 153.178 1.89893e-05H176.156C178.797 -0.0050574 181.34 1.00784 183.266 2.83178C185.192 4.65572 186.355 7.15304 186.518 9.81354L189.142 50.1203C194.987 51.3083 200.726 52.9778 206.3 55.1119Z" fill="#F4F4F4"/>
<path d="M179.991 258.072V323.371C179.717 325.952 178.508 328.341 176.595 330.077C174.682 331.813 172.201 332.775 169.629 332.777H151.563C148.941 332.748 146.428 331.721 144.525 329.901C142.622 328.082 141.471 325.604 141.301 322.963L138.644 282.215C125.875 279.352 113.673 274.347 102.544 267.41L124.48 249.277C136.572 255.064 149.787 258.068 163.169 258.072H179.991Z" fill="#F4F4F4"/>
<path d="M71.4245 232.299L37.7812 264.286C38.2014 263.359 38.7571 262.5 39.4298 261.739L66.3443 231.45C65.8397 230.635 65.335 229.854 64.864 229.005C64.393 228.156 64.1912 227.918 63.8884 227.375L71.4245 232.299Z" fill="#F4F4F4"/>
<path d="M49.8256 191.788L9.45371 187.476C7.48499 187.26 5.61791 186.482 4.0708 185.234L53.7618 187.476L50.3975 194.029L49.8256 191.788Z" fill="#F4F4F4"/>
<path d="M53.6276 145.165L5.65234 144.486C6.91981 143.838 8.30491 143.456 9.72317 143.366L49.8932 140.683C49.8932 140.038 50.1959 139.393 50.3642 138.748L53.6276 145.165Z" fill="#F4F4F4"/>
<path d="M62.4084 107.779C63.1149 106.455 63.8887 105.164 64.6962 103.874L40.3721 72.7016C39.9968 72.2266 39.67 71.7147 39.3965 71.1735L70.651 103.84L62.4084 107.779Z" fill="#F4F4F4"/>
</svg>
