<svg width="173" height="176" viewBox="0 0 173 176" fill="none" xmlns="http://www.w3.org/2000/svg">
<path d="M38.2264 87.8884C38.2264 100.619 43.2369 112.828 52.1555 121.83C61.0742 130.832 73.1705 135.889 85.7834 135.889C86.923 135.858 88.0574 136.057 89.12 136.474C90.1826 136.89 91.1523 137.517 91.9723 138.316C92.7923 139.116 93.4461 140.072 93.8956 141.13C94.3451 142.187 94.5812 143.325 94.5902 144.475V170.076C94.4468 171.427 93.8136 172.678 92.8122 173.587C91.8109 174.496 90.512 174.999 89.1652 175H79.7066C78.3344 174.985 77.0184 174.447 76.0222 173.495C75.026 172.542 74.4232 171.244 74.3345 169.862L72.943 148.529C66.2581 147.03 59.8697 144.41 54.0435 140.778L36.9406 154.449C35.8812 155.292 34.5499 155.71 33.2033 155.621C31.8568 155.533 30.5905 154.944 29.6486 153.969L21.2469 145.311C20.4707 144.509 19.9554 143.487 19.7697 142.381C19.584 141.276 19.7368 140.14 20.2077 139.124C20.4276 138.639 20.7185 138.189 21.0707 137.791L35.1617 121.933C34.8975 121.506 34.6332 121.097 34.3867 120.653C34.1401 120.209 34.0344 120.084 33.8759 119.8C30.6419 114.411 28.2646 108.544 26.8304 102.413C26.8304 102.288 26.8304 102.146 26.7423 102.022C26.6591 101.772 26.5944 101.517 26.5486 101.257L5.41216 98.9996C4.03078 98.8917 2.74121 98.2595 1.80321 97.2302C0.865204 96.201 0.348454 94.8513 0.357039 93.4529V81.3106C0.354406 79.9151 0.879805 78.5712 1.8259 77.5535C2.77199 76.5358 4.06737 75.9211 5.44739 75.835L26.4781 74.4306C27.7508 68.3928 29.9497 62.5925 32.9952 57.2394C33.3651 56.546 33.7702 55.8705 34.1929 55.1949L21.4935 38.8393C21.297 38.5906 21.1258 38.3226 20.9827 38.0393C20.4123 36.9921 20.1981 35.785 20.3732 34.6031C20.5482 33.4213 21.1026 32.3301 21.9514 31.497L30.4764 22.9992C31.4629 22.0186 32.7826 21.4543 34.1668 21.4213C35.5511 21.3883 36.8957 21.8889 37.927 22.8214L52.564 36.0482C58.7454 31.8703 65.6262 28.8586 72.8725 27.1592L75.1271 5.70133C75.2705 4.34972 75.9037 3.09927 76.9051 2.19028C77.9064 1.2813 79.2053 0.777911 80.5521 0.776865H92.5822C93.9649 0.774208 95.2964 1.3045 96.3047 2.25941C97.313 3.21433 97.922 4.52178 98.0073 5.91467L99.3811 27.017C102.441 27.639 105.446 28.513 108.364 29.6303L105.511 33.1859C103.689 35.5318 101.32 37.3862 98.6153 38.5835C95.9107 39.7809 92.9547 40.2841 90.0107 40.0482C88.6192 39.8882 87.2101 39.8882 85.7834 39.8882C73.1705 39.8882 61.0742 44.9453 52.1555 53.9471C43.2369 62.9489 38.2264 75.158 38.2264 87.8884Z" fill="#00FFC2"/>
<path d="M134.138 88.1116C134.138 75.3811 129.127 63.172 120.209 54.1703C111.29 45.1685 99.1936 40.1113 86.5807 40.1113C85.4411 40.1421 84.3067 39.9432 83.2441 39.5264C82.1815 39.1095 81.2118 38.483 80.3918 37.6835C79.5718 36.884 78.918 35.9276 78.4685 34.8701C78.019 33.8126 77.7829 32.6753 77.7739 31.5246V5.92447C77.9173 4.57286 78.5505 3.32241 79.5519 2.41342C80.5532 1.50444 81.8521 1.00105 83.1989 1H92.6575C94.0297 1.01503 95.3457 1.55275 96.3419 2.50546C97.3381 3.45818 97.9409 4.75556 98.0296 6.1378L99.4211 27.4712C106.106 28.9703 112.494 31.5904 118.321 35.2224L135.423 21.5512C136.483 20.7076 137.814 20.2899 139.161 20.3785C140.507 20.4671 141.774 21.0559 142.716 22.0312L151.117 30.689C151.893 31.4911 152.409 32.5131 152.594 33.6185C152.78 34.724 152.627 35.8602 152.156 36.8757C151.937 37.3613 151.646 37.8107 151.293 38.2091L137.202 54.0669C137.467 54.4936 137.731 54.9025 137.977 55.3469C138.224 55.7914 138.33 55.9158 138.488 56.2003C141.722 61.5888 144.099 67.4556 145.534 73.587C145.534 73.7115 145.534 73.8537 145.622 73.9781C145.705 74.2278 145.77 74.4833 145.816 74.7426L166.952 77.0004C168.333 77.1083 169.623 77.7405 170.561 78.7697C171.499 79.7989 172.016 81.1487 172.007 82.5471V94.6894C172.01 96.0849 171.484 97.4288 170.538 98.4465C169.592 99.4642 168.297 100.079 166.917 100.165L145.886 101.569C144.613 107.607 142.414 113.407 139.369 118.761C138.999 119.454 138.594 120.129 138.171 120.805L150.871 137.161C151.067 137.409 151.238 137.677 151.381 137.961C151.952 139.008 152.166 140.215 151.991 141.397C151.816 142.579 151.261 143.67 150.413 144.503L141.888 153.001C140.901 153.981 139.581 154.546 138.197 154.579C136.813 154.612 135.468 154.111 134.437 153.179L119.8 139.952C113.619 144.13 106.738 147.141 99.4916 148.841L97.237 170.299C97.0936 171.65 96.4604 172.901 95.459 173.81C94.4577 174.719 93.1588 175.222 91.812 175.223H79.7819C78.3992 175.226 77.0677 174.695 76.0594 173.741C75.0511 172.786 74.4421 171.478 74.3568 170.085L72.983 148.983C69.923 148.361 66.9186 147.487 64 146.37L66.8534 142.814C68.6754 140.468 71.0443 138.614 73.7488 137.416C76.4534 136.219 79.4094 135.716 82.3535 135.952C83.7449 136.112 85.154 136.112 86.5807 136.112C99.1936 136.112 111.29 131.055 120.209 122.053C129.127 113.051 134.138 100.842 134.138 88.1116Z" fill="#00FFC2"/>
<path d="M108.364 29.6303L102.076 37.5771C101.146 38.7552 99.9204 39.6603 98.5264 40.1981C97.1325 40.7358 95.6211 40.8867 94.1498 40.6348C83.2886 38.6449 72.0798 40.5304 62.4452 45.9682L52.5463 35.9593C58.7277 31.7814 65.6086 28.7697 72.8549 27.0703L75.127 5.70133C75.2704 4.34972 75.9036 3.09927 76.905 2.19028C77.9064 1.2813 79.2052 0.777911 80.552 0.776865H92.5822C93.9648 0.774208 95.2963 1.3045 96.3046 2.25941C97.3129 3.21433 97.9219 4.52178 98.0072 5.91467L99.3811 27.017C102.441 27.639 105.445 28.513 108.364 29.6303Z" fill="#00FFC2"/>
<path d="M94.5902 135.889V170.075C94.4468 171.427 93.8136 172.678 92.8122 173.586C91.8109 174.495 90.512 174.999 89.1652 175H79.7067C78.3344 174.985 77.0184 174.447 76.0222 173.494C75.026 172.542 74.4232 171.244 74.3345 169.862L72.943 148.529C66.2581 147.03 59.8697 144.41 54.0435 140.778L65.5276 131.284C71.8585 134.314 78.777 135.887 85.7834 135.889H94.5902Z" fill="#00FFC2"/>
<path d="M37.7508 122.395L20.1372 139.142C20.3571 138.656 20.648 138.207 21.0002 137.809L35.0912 121.951C34.827 121.524 34.5628 121.115 34.3162 120.671C34.0696 120.226 33.9639 120.102 33.8054 119.817L37.7508 122.395Z" fill="#00FFC2"/>
<path d="M26.4428 101.186L5.30642 98.9285C4.27571 98.8153 3.29821 98.4084 2.48823 97.7551L28.5036 98.9285L26.7423 102.36L26.4428 101.186Z" fill="#00FFC2"/>
<path d="M28.4332 76.7772L3.31614 76.4217C3.97971 76.0821 4.70487 75.8824 5.44739 75.835L26.4781 74.4306C26.4781 74.0928 26.6366 73.755 26.7247 73.4172L28.4332 76.7772Z" fill="#00FFC2"/>
<path d="M33.0304 57.2038C33.4003 56.5105 33.8054 55.8349 34.2281 55.1594L21.4935 38.8393C21.297 38.5906 21.1258 38.3226 20.9827 38.0393L37.3458 55.1416L33.0304 57.2038Z" fill="#00FFC2"/>
</svg>
