<svg width="207" height="42" viewBox="0 0 207 42" fill="none" xmlns="http://www.w3.org/2000/svg">
<g clip-path="url(#clip0_57_108)">
<g clip-path="url(#clip1_57_108)">
<path d="M9.29042 20.9675C9.29042 24.0743 10.5196 27.0539 12.7076 29.2507C14.8956 31.4475 17.8632 32.6817 20.9575 32.6817C21.2371 32.6742 21.5154 32.7227 21.7761 32.8245C22.0368 32.9262 22.2747 33.0791 22.4758 33.2742C22.677 33.4693 22.8374 33.7027 22.9477 33.9608C23.0579 34.2189 23.1159 34.4964 23.1181 34.7773V41.0248C23.0829 41.3547 22.9276 41.6599 22.6819 41.8817C22.4362 42.1035 22.1176 42.2264 21.7872 42.2266H19.4667C19.1301 42.223 18.8072 42.0917 18.5628 41.8592C18.3184 41.6267 18.1705 41.3101 18.1488 40.9728L17.8074 35.7665C16.1674 35.4006 14.6001 34.7612 13.1708 33.8748L8.97498 37.2112C8.71507 37.4171 8.38845 37.519 8.05811 37.4974C7.72776 37.4758 7.41709 37.3321 7.18602 37.0941L5.12484 34.9812C4.93442 34.7854 4.808 34.536 4.76245 34.2662C4.7169 33.9965 4.75438 33.7192 4.86989 33.4713C4.92385 33.3529 4.99523 33.2432 5.08163 33.146L8.53854 29.2759C8.47372 29.1718 8.40891 29.072 8.34841 28.9635C8.28791 28.8551 8.26199 28.8247 8.2231 28.7553C7.42973 27.4402 6.8465 26.0085 6.49464 24.5121C6.49464 24.4818 6.49464 24.4471 6.47303 24.4167C6.45262 24.3558 6.43674 24.2934 6.4255 24.2301L1.24013 23.6791C0.901238 23.6528 0.584871 23.4985 0.354752 23.2473C0.124632 22.9962 -0.00214129 22.6668 -3.5209e-05 22.3255V19.3622C-0.0006812 19.0216 0.128214 18.6937 0.360318 18.4453C0.592421 18.197 0.910215 18.0469 1.24877 18.0259L6.40822 17.6832C6.72045 16.2097 7.25989 14.7942 8.00704 13.4878C8.09778 13.3186 8.19717 13.1537 8.30088 12.9888L5.18533 8.99731C5.13713 8.93663 5.09515 8.87122 5.06002 8.80208C4.92009 8.54653 4.86756 8.25193 4.91049 7.9635C4.95343 7.67508 5.08945 7.40878 5.29768 7.20547L7.38912 5.13162C7.63113 4.89231 7.9549 4.7546 8.29448 4.74654C8.63407 4.73848 8.96395 4.86067 9.21696 5.08824L12.8078 8.31615C14.3243 7.29657 16.0124 6.56157 17.7901 6.14686L18.3432 0.910168C18.3784 0.580314 18.5337 0.275147 18.7794 0.0533137C19.0251 -0.16852 19.3437 -0.291368 19.6741 -0.291624H22.6255C22.9647 -0.292272 23.2913 -0.162856 23.5387 0.070185C23.786 0.303226 23.9354 0.622304 23.9564 0.962231L24.2934 6.11215C25.0441 6.26394 25.7812 6.47725 26.4972 6.74992L25.7972 7.61764C25.3502 8.19015 24.769 8.64269 24.1055 8.9349C23.442 9.22711 22.7168 9.3499 21.9946 9.29234C21.6532 9.25329 21.3075 9.25329 20.9575 9.25329C17.8632 9.25329 14.8956 10.4875 12.7076 12.6843C10.5196 14.8811 9.29042 17.8607 9.29042 20.9675Z" fill="#333333"/>
<path d="M26.4972 6.74992L24.9546 8.68927C24.7265 8.9768 24.4258 9.19768 24.0838 9.32892C23.7418 9.46016 23.371 9.49697 23.0101 9.43551C20.3455 8.94987 17.5957 9.41003 15.232 10.7371L12.8035 8.29446C14.32 7.27487 16.0081 6.53988 17.7858 6.12516L18.3432 0.910168C18.3784 0.580314 18.5338 0.275147 18.7794 0.0533137C19.0251 -0.16852 19.3438 -0.291368 19.6742 -0.291624H22.6255C22.9647 -0.292272 23.2914 -0.162856 23.5387 0.070185C23.7861 0.303226 23.9355 0.622304 23.9564 0.962231L24.2935 6.11215C25.0442 6.26394 25.7812 6.47725 26.4972 6.74992Z" fill="#333333"/>
<path d="M23.1181 32.6817V41.0248C23.0829 41.3547 22.9276 41.6598 22.6819 41.8817C22.4363 42.1035 22.1176 42.2263 21.7872 42.2266H19.4667C19.1301 42.2229 18.8072 42.0917 18.5628 41.8592C18.3185 41.6267 18.1706 41.3101 18.1488 40.9727L17.8074 35.7664C16.1674 35.4006 14.6002 34.7612 13.1708 33.8748L15.9882 31.558C17.5414 32.2974 19.2387 32.6812 20.9575 32.6817H23.1181Z" fill="#333333"/>
<path d="M9.17379 29.3887L4.85265 33.4757C4.90661 33.3572 4.97798 33.2475 5.06438 33.1503L8.5213 29.2803C8.45648 29.1762 8.39166 29.0764 8.33117 28.9679C8.27067 28.8594 8.24474 28.8291 8.20585 28.7596L9.17379 29.3887Z" fill="#333333"/>
<path d="M6.39961 24.2127L1.21424 23.6617C0.961377 23.6341 0.721568 23.5348 0.522858 23.3754L6.90518 23.6617L6.47307 24.4991L6.39961 24.2127Z" fill="#333333"/>
<path d="M6.8879 18.2559L0.725952 18.1691C0.888746 18.0863 1.06665 18.0375 1.24881 18.026L6.40825 17.6832C6.40825 17.6008 6.44714 17.5183 6.46875 17.4359L6.8879 18.2559Z" fill="#333333"/>
<path d="M8.01572 13.4791C8.10646 13.3099 8.20585 13.1451 8.30956 12.9802L5.18537 8.99736C5.13717 8.93668 5.09518 8.87127 5.06006 8.80212L9.0744 12.9759L8.01572 13.4791Z" fill="#333333"/>
<path d="M30.0492 16.9672V26.8376H27.9146V22.8894H20.2662V20.7201H27.9146V18.0389C27.9146 17.8007 27.8203 17.5723 27.6526 17.4038C27.4848 17.2354 27.2573 17.1408 27.0201 17.1408H18.7667C18.5295 17.1408 18.302 17.2354 18.1342 17.4038C17.9665 17.5723 17.8722 17.8007 17.8722 18.0389V26.8376H15.7117V16.9672C15.7116 16.7047 15.7637 16.4448 15.865 16.2027C15.9662 15.9606 16.1145 15.7412 16.3012 15.5574C16.4879 15.3736 16.7093 15.229 16.9523 15.1321C17.1954 15.0352 17.4552 14.988 17.7167 14.9932H28.0874C28.6081 14.9943 29.1071 15.2028 29.4749 15.5729C29.8427 15.943 30.0492 16.4444 30.0492 16.9672Z" fill="#333333"/>
<path d="M107.692 16.9673V26.8376H105.557V22.8895H97.9084V20.7202H105.557V18.039C105.556 17.8004 105.461 17.572 105.292 17.4037C105.124 17.2354 104.896 17.1409 104.658 17.1409H96.409C96.2901 17.1386 96.1719 17.1601 96.0614 17.2042C95.9509 17.2483 95.8502 17.3141 95.7653 17.3977C95.6804 17.4813 95.613 17.5811 95.5669 17.6912C95.5209 17.8013 95.4972 17.9196 95.4972 18.039V26.8376H93.3583V16.9673C93.3583 16.7081 93.4091 16.4514 93.5079 16.2119C93.6067 15.9724 93.7516 15.7548 93.9341 15.5715C94.1167 15.3882 94.3335 15.2427 94.572 15.1435C94.8105 15.0443 95.0662 14.9933 95.3244 14.9933H105.695C105.956 14.9892 106.215 15.0373 106.457 15.1347C106.699 15.2321 106.919 15.3769 107.105 15.5606C107.291 15.7443 107.438 15.9633 107.539 16.2048C107.64 16.4463 107.692 16.7055 107.692 16.9673Z" fill="#333333"/>
<path d="M34.137 18.7635V23.0674C34.1365 23.2806 34.1779 23.4919 34.2589 23.689C34.3399 23.8861 34.4589 24.0652 34.6091 24.216C34.7593 24.3668 34.9377 24.4863 35.134 24.5676C35.3303 24.649 35.5407 24.6906 35.7531 24.69H42.8485V21.8352H38.4971V19.6659H44.9788V26.8376H34.9321C34.5472 26.8382 34.166 26.7625 33.8103 26.6149C33.4546 26.4672 33.1314 26.2506 32.8592 25.9773C32.587 25.704 32.3713 25.3795 32.2242 25.0224C32.0772 24.6653 32.0018 24.2825 32.0024 23.896V17.9305C32.0018 17.544 32.0772 17.1612 32.2242 16.8041C32.3713 16.447 32.587 16.1225 32.8592 15.8492C33.1314 15.5759 33.4546 15.3593 33.8103 15.2116C34.166 15.064 34.5472 14.9883 34.9321 14.9889H44.9874V17.1582H35.7575C35.3307 17.1559 34.9205 17.3236 34.6167 17.6245C34.313 17.9254 34.1405 18.335 34.137 18.7635Z" fill="#333333"/>
<path d="M80.5763 18.7635V23.0674C80.5763 23.4977 80.7466 23.9104 81.0497 24.2147C81.3528 24.519 81.7638 24.69 82.1925 24.69H89.2834V21.8352H84.9321V19.6659H91.4138V26.8376H81.3671C80.9822 26.8382 80.601 26.7625 80.2453 26.6149C79.8896 26.4672 79.5664 26.2506 79.2942 25.9773C79.022 25.704 78.8063 25.3795 78.6592 25.0224C78.5122 24.6653 78.4368 24.2825 78.4374 23.896V17.9305C78.4368 17.544 78.5122 17.1612 78.6592 16.8041C78.8063 16.447 79.022 16.1225 79.2942 15.8492C79.5664 15.5759 79.8896 15.3593 80.2453 15.2116C80.601 15.064 80.9822 14.9883 81.3671 14.9889H91.4224V17.1582H82.1925C81.7668 17.1582 81.3583 17.3267 81.0558 17.6273C80.7532 17.9279 80.5809 18.3361 80.5763 18.7635Z" fill="#333333"/>
<path d="M66.0703 17.1408V19.7743H76.4842V21.9436H66.0703V24.6986H76.4842V26.8679H64.64C64.4627 26.8638 64.2935 26.7927 64.1662 26.6689C64.0388 26.545 63.9627 26.3775 63.9529 26.1998V15.696C63.9541 15.5092 64.0288 15.3304 64.1607 15.1988C64.2927 15.0671 64.4712 14.9932 64.6573 14.9932H76.4842V17.1625L66.0703 17.1408Z" fill="#333333"/>
<path d="M206.983 14.8934V24.1303C206.983 24.8782 206.687 25.5955 206.16 26.1244C205.633 26.6533 204.919 26.9504 204.174 26.9504H195.367C194.623 26.9504 193.908 26.6533 193.381 26.1244C192.855 25.5955 192.559 24.8782 192.559 24.1303V14.9932H194.693V23.6314C194.693 23.9317 194.812 24.2197 195.024 24.4321C195.235 24.6444 195.522 24.7637 195.821 24.7637H203.694C203.993 24.7637 204.28 24.6444 204.492 24.4321C204.703 24.2197 204.822 23.9317 204.822 23.6314V14.8934H206.983Z" fill="#333333"/>
<path d="M173.611 26.8376V24.6899H171.048V26.8376H173.611Z" fill="#333333"/>
<path d="M59.0268 22.5076H56.944L60.833 26.8462H56.944L51.1278 20.36H58.9922C59.2214 20.36 59.4413 20.2686 59.6033 20.1059C59.7654 19.9431 59.8565 19.7224 59.8565 19.4923V17.9955C59.8565 17.7653 59.7654 17.5446 59.6033 17.3819C59.4413 17.2192 59.2214 17.1278 58.9922 17.1278H49.7277C49.6422 17.1278 49.5576 17.1447 49.4787 17.1777C49.3997 17.2107 49.3281 17.259 49.2678 17.3199C49.2076 17.3808 49.1599 17.453 49.1276 17.5325C49.0953 17.612 49.079 17.6971 49.0795 17.7829V26.8375H46.919V14.9932H59.0182C59.8024 14.9932 60.5547 15.3057 61.1097 15.8621C61.6646 16.4185 61.977 17.1733 61.9781 17.9608V19.54C61.977 20.326 61.6658 21.0795 61.1127 21.6356C60.5596 22.1918 59.8096 22.5053 59.0268 22.5076Z" fill="#333333"/>
<path d="M187.65 22.5076H185.563L189.452 26.8462H185.563L179.76 20.36H187.628C187.858 20.36 188.077 20.2686 188.239 20.1059C188.401 19.9431 188.493 19.7224 188.493 19.4923V17.9955C188.493 17.7653 188.401 17.5446 188.239 17.3819C188.077 17.2192 187.858 17.1278 187.628 17.1278H178.351C178.178 17.1278 178.012 17.1968 177.889 17.3196C177.767 17.4425 177.698 17.6091 177.698 17.7829V26.8375H175.538V14.9932H187.637C188.421 14.9932 189.173 15.3058 189.727 15.8624C190.281 16.4189 190.593 17.1737 190.593 17.9608V19.54C190.593 20.3248 190.283 21.0777 189.732 21.6338C189.18 22.19 188.432 22.5042 187.65 22.5076Z" fill="#333333"/>
<path d="M123.498 14.9932V17.1408H117.639V26.8375H115.504V17.1408H109.645V14.9932H123.498Z" fill="#333333"/>
<path d="M127.582 17.1409V19.7744H137.996V21.9437H127.582V24.6987H137.996V26.868H126.151C125.965 26.868 125.787 26.7941 125.655 26.6624C125.523 26.5307 125.448 26.352 125.447 26.1652V15.6961C125.448 15.5093 125.523 15.3306 125.655 15.1989C125.787 15.0672 125.965 14.9933 126.151 14.9933H137.996V17.1626L127.582 17.1409Z" fill="#333333"/>
<path d="M169.095 18.7678V17.1409C169.098 16.8572 169.046 16.5757 168.94 16.3127C168.834 16.0496 168.678 15.8103 168.479 15.6085C168.28 15.4067 168.044 15.2465 167.783 15.1372C167.523 15.0278 167.243 14.9715 166.96 14.9716H154.407V26.8159H166.96C167.529 26.8091 168.072 26.5775 168.471 26.1714C168.871 25.7653 169.095 25.2175 169.095 24.6466V23.0457C169.096 22.4964 168.885 21.9681 168.508 21.5705C168.13 21.173 167.615 20.9368 167.068 20.9111H166.96C166.996 20.9068 167.032 20.9068 167.068 20.9111C167.616 20.8833 168.131 20.6452 168.508 20.2463C168.886 19.8473 169.096 19.318 169.095 18.7678ZM166.135 24.69H156.546V21.9871H166.135C166.353 21.9882 166.563 22.0759 166.717 22.231C166.872 22.3862 166.959 22.5963 166.96 22.8157V23.8613C166.959 24.0808 166.872 24.2909 166.717 24.446C166.563 24.6012 166.353 24.6889 166.135 24.69ZM166.135 19.8438H156.546V17.1409H166.135C166.353 17.142 166.563 17.2297 166.717 17.3848C166.872 17.54 166.959 17.7501 166.96 17.9695V19.0151C166.959 19.2346 166.872 19.4447 166.717 19.5998C166.563 19.755 166.353 19.8427 166.135 19.8438Z" fill="#333333"/>
<path d="M146.746 20.9068L152.454 26.7986L149.136 26.8203L144.447 21.9871H142.088V26.8377H139.949V14.9933H142.088V19.8438H144.434L149.136 14.9933L152.454 15.015L146.746 20.9068Z" fill="#333333"/>
<path d="M32.508 33.6058C33.0438 33.2566 33.6711 33.0754 34.3099 33.0852C35.4939 33.0852 36.3106 33.7056 36.3106 34.7643C36.3017 35.1614 36.1575 35.5435 35.9019 35.8467C35.6463 36.1499 35.2948 36.3559 34.9062 36.4303C35.3547 36.4417 35.7806 36.6303 36.0914 36.9553C36.4021 37.2803 36.5725 37.7153 36.5655 38.1657C36.5655 39.5888 35.3426 40.1571 34.0981 40.1571C33.4752 40.1767 32.8586 40.0268 32.3135 39.7233L32.5468 39.0334C33.0141 39.3005 33.5391 39.4494 34.0765 39.4673C35.0877 39.4673 35.6451 38.9206 35.6451 38.1657C35.6451 37.1418 34.6642 36.8641 33.7913 36.8641H33.3895V36.1526H33.7913C34.6945 36.1526 35.3902 35.5929 35.3902 34.8944C35.3902 34.1959 34.9062 33.8141 34.1673 33.8141C33.6648 33.8294 33.1755 33.9792 32.7499 34.248L32.508 33.6058Z" fill="#333333"/>
<path d="M40.4329 40.0574L40.3638 39.4369H40.3336C40.159 39.669 39.932 39.8561 39.6713 39.9829C39.4107 40.1096 39.1237 40.1723 38.8341 40.1658C38.6416 40.1802 38.4481 40.1544 38.266 40.0899C38.084 40.0254 37.9172 39.9237 37.7762 39.7912C37.6353 39.6586 37.5233 39.4982 37.4473 39.32C37.3713 39.1418 37.333 38.9496 37.3347 38.7558C37.3347 37.567 38.389 36.9162 40.2817 36.9249V36.8251C40.3017 36.6724 40.2868 36.5172 40.2381 36.3711C40.1895 36.225 40.1084 36.092 40.001 35.9821C39.8935 35.8721 39.7626 35.7882 39.6181 35.7365C39.4736 35.6849 39.3193 35.667 39.1668 35.6841C38.7088 35.682 38.2594 35.8098 37.8705 36.0528L37.6674 35.4628C38.154 35.1704 38.7122 35.0201 39.2792 35.0289C40.7743 35.0289 41.1416 36.0572 41.1416 37.042V38.8816C41.1418 39.2756 41.1751 39.6689 41.241 40.0574H40.4329ZM40.3033 37.5453C39.331 37.5453 38.2248 37.6972 38.2248 38.6517C38.2134 38.7685 38.2279 38.8863 38.2673 38.9968C38.3067 39.1073 38.37 39.2076 38.4527 39.2906C38.5353 39.3736 38.6353 39.4372 38.7453 39.4767C38.8553 39.5163 38.9727 39.5308 39.0891 39.5194C39.3479 39.5255 39.602 39.449 39.8148 39.3009C40.0276 39.1527 40.188 38.9406 40.2731 38.695C40.3049 38.6043 40.3223 38.5092 40.3249 38.413L40.3033 37.5453Z" fill="#333333"/>
<path d="M46.6295 35.1287V40.0573H45.7393V35.8489H43.4621V40.0573H42.5978V35.1287H46.6295Z" fill="#333333"/>
<path d="M48.7771 35.1287V36.7426C48.7771 37.3631 49.0104 37.7926 49.7882 37.7926C50.1655 37.7885 50.5323 37.6672 50.8382 37.4455V35.1287H51.7025V40.0573H50.8382V38.0746C50.4387 38.3197 49.9799 38.4503 49.5117 38.4521C48.5783 38.4521 47.8999 37.9748 47.8999 36.8468V35.1113L48.7771 35.1287Z" fill="#333333"/>
<path d="M55.894 40.0573L55.8205 39.4369H55.7903C55.616 39.6692 55.3891 39.8565 55.1283 39.9833C54.8676 40.11 54.5805 40.1726 54.2908 40.1658C54.0985 40.1802 53.9052 40.1543 53.7234 40.0898C53.5415 40.0253 53.375 39.9235 53.2344 39.7909C53.0938 39.6583 52.9822 39.4978 52.9067 39.3196C52.8312 39.1414 52.7934 38.9494 52.7957 38.7557C52.7957 37.5669 53.8458 36.9161 55.7384 36.9248V36.825C55.7591 36.6726 55.7449 36.5174 55.6968 36.3713C55.6487 36.2252 55.568 36.092 55.4609 35.982C55.3538 35.8719 55.2231 35.7879 55.0787 35.7362C54.9344 35.6846 54.7802 35.6667 54.6279 35.684C54.1696 35.6805 53.7199 35.8084 53.3315 36.0528L53.1501 35.454C53.6349 35.1613 54.1918 35.011 54.7575 35.0202C56.257 35.0202 56.6199 36.0484 56.6199 37.0333V38.8728C56.6141 39.2678 56.6415 39.6626 56.702 40.0529L55.894 40.0573ZM55.7427 37.5366C54.7705 37.5366 53.6686 37.6884 53.6686 38.6429C53.657 38.7575 53.6704 38.8733 53.7081 38.9821C53.7457 39.0909 53.8066 39.1901 53.8865 39.2728C53.9664 39.3555 54.0633 39.4196 54.1705 39.4607C54.2776 39.5018 54.3925 39.5188 54.5069 39.5106C54.766 39.5181 55.0208 39.4422 55.2338 39.2938C55.4469 39.1455 55.607 38.9326 55.6909 38.6863C55.7227 38.5956 55.7402 38.5004 55.7427 38.4043V37.5366Z" fill="#333333"/>
<path d="M61.5504 39.8622C61.109 40.0605 60.6294 40.1583 60.146 40.1485C58.6682 40.1485 57.7046 39.1419 57.7046 37.6365C57.6895 37.2872 57.7475 36.9387 57.8749 36.6134C58.0024 36.2881 58.1964 35.9932 58.4444 35.7479C58.6924 35.5026 58.9889 35.3122 59.3148 35.1891C59.6406 35.066 59.9886 35.0129 60.3361 35.0333C60.7616 35.029 61.183 35.1163 61.572 35.2893L61.3602 35.9704C61.042 35.8039 60.6861 35.7232 60.3275 35.7361C59.204 35.7361 58.599 36.5692 58.599 37.5974C58.599 38.7341 59.325 39.437 60.2972 39.437C60.6752 39.4391 61.0487 39.356 61.3905 39.194L61.5504 39.8622Z" fill="#333333"/>
<path d="M66.0659 35.1287V35.8402H64.5362V40.0573H63.672V35.8489H62.1423V35.1287H66.0659Z" fill="#333333"/>
<path d="M67.6648 35.1287V37.2025C67.6648 37.9835 67.6648 38.4694 67.6172 39.1722H67.6475C67.9413 38.5735 68.1099 38.2308 68.4339 37.6581L69.9636 35.12H71.005V40.0573H70.1408V37.9618C70.1408 37.1591 70.1408 36.7426 70.2013 35.953H70.171C69.8556 36.5821 69.6439 36.9769 69.3587 37.4759C68.9093 38.2394 68.3734 39.1896 67.8419 40.0573H66.8178V35.1287H67.6648Z" fill="#333333"/>
<path d="M78.3985 35.1287V39.3762H78.9041L78.8522 41.6019H78.1522L78.1133 40.04H74.7212L74.6823 41.6019H73.9823L73.9434 39.3762H74.3755C74.5856 39.0667 74.7487 38.7274 74.8595 38.3697C75.055 37.7348 75.1513 37.0732 75.1447 36.4086V35.1071L78.3985 35.1287ZM75.9182 36.6212C75.921 37.2406 75.8352 37.8572 75.6632 38.4521C75.5646 38.7703 75.4328 39.0772 75.27 39.3676H77.5256V35.8099H75.9182V36.6212Z" fill="#333333"/>
<path d="M83.7308 35.1287V40.0573H82.8666V35.8272H81.19V37.1288C81.19 38.5084 81.056 39.4325 80.4208 39.8491C80.1454 40.0682 79.7993 40.1778 79.4485 40.1571L79.3578 39.4542C79.5334 39.4273 79.6996 39.3572 79.8418 39.2503C80.2998 38.9163 80.3473 38.2264 80.3473 37.1288V35.1287H83.7308Z" fill="#333333"/>
<path d="M88.8038 40.0573H87.9396V37.9835H87.2871C86.9888 37.967 86.6954 38.0646 86.4661 38.2568C86.1031 38.5519 85.9691 39.1636 85.779 39.6408C85.7148 39.7844 85.6411 39.9235 85.5586 40.0573H84.608C84.7269 39.8812 84.8282 39.6938 84.9104 39.4977C85.1222 39.0204 85.2432 38.3783 85.6796 38.0139C85.8358 37.869 86.0286 37.77 86.237 37.7275V37.6971C85.5975 37.6277 84.9407 37.2286 84.9407 36.478C84.9389 36.2571 84.9986 36.0401 85.1131 35.8515C85.2277 35.6629 85.3925 35.5102 85.5889 35.4107C86.1003 35.1648 86.6645 35.05 87.2309 35.0766C87.7581 35.0809 88.2846 35.1142 88.8081 35.1764L88.8038 40.0573ZM87.9396 35.7188C87.6949 35.6828 87.4479 35.6654 87.2007 35.6667C86.5957 35.6667 85.8741 35.8402 85.8741 36.5344C85.8741 37.2286 86.6562 37.4021 87.1704 37.4021H87.9309L87.9396 35.7188Z" fill="#333333"/>
<path d="M95.3849 35.1287V35.8489H93.2589V40.0573H92.3947V35.1287H95.3849Z" fill="#333333"/>
<path d="M96.2232 36.734C96.2232 36.1049 96.2232 35.5973 96.1843 35.1287H96.9837L97.0226 35.9704H97.0442C97.2199 35.6697 97.4733 35.4223 97.7776 35.2543C98.0818 35.0863 98.4256 35.0039 98.7727 35.0159C99.9567 35.0159 100.847 36.0225 100.847 37.5149C100.847 39.2851 99.7752 40.1572 98.6214 40.1572C98.3252 40.1691 98.0309 40.1043 97.7668 39.9691C97.5027 39.8338 97.2776 39.6327 97.1133 39.3849H97.0917V42.0575H96.2275L96.2232 36.734ZM97.0874 38.0356C97.0896 38.1582 97.104 38.2803 97.1306 38.4C97.2041 38.6998 97.3756 38.9661 97.6177 39.1565C97.8597 39.3468 98.1584 39.4502 98.4659 39.45C99.4079 39.45 99.9523 38.6777 99.9523 37.5497C99.9696 36.5865 99.4554 35.7188 98.522 35.7188C98.2072 35.7278 97.9041 35.8412 97.6602 36.0413C97.4163 36.2415 97.2453 36.5171 97.1738 36.8251C97.1383 36.945 97.118 37.0689 97.1133 37.1939L97.0874 38.0356Z" fill="#333333"/>
<path d="M102.208 35.1287L103.28 38.0355C103.392 38.3609 103.513 38.7471 103.595 39.0421C103.686 38.7471 103.785 38.3696 103.906 38.0138L104.878 35.1287H105.82L104.485 38.6342C103.846 40.322 103.409 41.1853 102.804 41.7147C102.496 41.9994 102.119 42.1983 101.711 42.2917L101.486 41.5411C101.772 41.4476 102.038 41.3004 102.268 41.1072C102.591 40.8388 102.847 40.4986 103.016 40.1137C103.051 40.0459 103.075 39.9725 103.085 39.8968C103.078 39.8158 103.058 39.7366 103.025 39.6625L101.214 35.133L102.208 35.1287Z" fill="#333333"/>
<path d="M107.108 37.1896H107.54C108.292 37.1896 108.798 36.8468 108.798 36.3869C108.798 35.927 108.4 35.6754 107.847 35.6754C107.427 35.6841 107.018 35.8038 106.659 36.0225L106.438 35.4758C106.931 35.1824 107.495 35.0322 108.067 35.042C108.815 35.042 109.727 35.3804 109.727 36.3435C109.696 36.6281 109.569 36.8935 109.367 37.0956C109.165 37.2977 108.9 37.4242 108.616 37.4542C109.342 37.515 109.951 37.9618 109.951 38.6864C109.951 39.7537 108.867 40.1485 107.838 40.1485C107.284 40.1507 106.738 40.0151 106.248 39.7537L106.482 39.1506C106.88 39.367 107.325 39.4832 107.778 39.489C108.513 39.489 108.979 39.1332 108.979 38.6213C108.979 37.9618 108.292 37.7796 107.553 37.7796H107.121L107.108 37.1896Z" fill="#333333"/>
<path d="M115.5 37.5453C115.5 39.3675 114.242 40.1484 113.058 40.1484C111.736 40.1484 110.712 39.1722 110.712 37.619C110.712 35.9747 111.784 35.0159 113.14 35.0159C114.497 35.0159 115.5 36.0441 115.5 37.5453ZM111.611 37.5973C111.611 38.6733 112.229 39.489 113.102 39.489C113.974 39.489 114.588 38.6863 114.588 37.5756C114.588 36.7426 114.156 35.6884 113.123 35.6884C112.09 35.6884 111.611 36.6645 111.611 37.5973Z" fill="#333333"/>
<path d="M116.602 35.1894C117.118 35.1129 117.64 35.0752 118.162 35.0766C118.983 35.0766 120.322 35.2111 120.322 36.3087C120.31 36.5851 120.2 36.848 120.012 37.0507C119.825 37.2533 119.572 37.3825 119.298 37.4151C120.02 37.5149 120.543 37.9227 120.543 38.6342C120.543 39.9358 118.922 40.0877 117.95 40.0877C117.405 40.0877 116.835 40.0443 116.571 40.0269L116.602 35.1894ZM117.466 39.4586C117.704 39.4875 117.944 39.5006 118.183 39.4976C118.78 39.4976 119.67 39.3544 119.67 38.6299C119.67 37.9053 118.961 37.7622 118.114 37.7622H117.466V39.4586ZM117.466 37.1895H118.136C118.793 37.1895 119.471 36.9986 119.471 36.4172C119.471 35.9313 119.039 35.697 118.175 35.697C117.881 35.697 117.695 35.697 117.483 35.736L117.466 37.1895Z" fill="#333333"/>
<path d="M122.504 35.1287V37.2025C122.504 37.9835 122.504 38.4694 122.457 39.1722H122.487C122.781 38.5735 122.949 38.2308 123.274 37.6581L124.803 35.12H125.845V40.0573H124.98V37.9618C124.98 37.1591 124.98 36.7426 125.041 35.953H125.011C124.695 36.5821 124.483 36.9769 124.198 37.4759C123.732 38.2394 123.196 39.1809 122.669 40.0486H121.649V35.1287H122.504Z" fill="#333333"/>
<path d="M128.174 35.1287V37.2633H128.385L130.231 35.1287H131.311L129.176 37.3544C129.967 37.4368 130.442 37.9618 130.827 38.8468C130.979 39.2618 131.158 39.6662 131.363 40.0573H130.429C130.252 39.7343 130.1 39.3977 129.976 39.0508C129.634 38.2481 129.176 37.888 128.338 37.888H128.165V40.0573H127.301V35.1287H128.174Z" fill="#333333"/>
<path d="M136.518 37.5453C136.518 39.3675 135.26 40.1484 134.076 40.1484C132.75 40.1484 131.73 39.1722 131.73 37.619C131.73 35.9747 132.802 35.0159 134.159 35.0159C135.515 35.0159 136.518 36.0441 136.518 37.5453ZM132.629 37.5973C132.629 38.6733 133.247 39.489 134.12 39.489C134.993 39.489 135.606 38.6863 135.606 37.5756C135.606 36.7426 135.174 35.6884 134.137 35.6884C133.1 35.6884 132.629 36.6645 132.629 37.5973Z" fill="#333333"/>
<path d="M137.62 35.1894C138.136 35.1128 138.658 35.0751 139.18 35.0766C140.001 35.0766 141.34 35.2111 141.34 36.3087C141.329 36.5847 141.22 36.8476 141.033 37.0503C140.846 37.253 140.594 37.3823 140.32 37.4151C141.038 37.5149 141.565 37.9227 141.565 38.6342C141.565 39.9358 139.945 40.0877 138.972 40.0877C138.423 40.0877 137.857 40.0443 137.594 40.0269L137.62 35.1894ZM138.462 39.4586C138.7 39.4877 138.94 39.5007 139.18 39.4976C139.776 39.4976 140.666 39.3544 140.666 38.6299C140.666 37.9054 139.957 37.7622 139.111 37.7622H138.462V39.4586ZM138.462 37.1895H139.141C139.798 37.1895 140.476 36.9986 140.476 36.4172C140.476 35.9313 140.044 35.697 139.18 35.697C138.886 35.697 138.704 35.697 138.493 35.7361L138.462 37.1895Z" fill="#333333"/>
<path d="M145.67 35.1287V37.2025C145.67 37.9835 145.67 38.4694 145.618 39.1722H145.648C145.942 38.5735 146.115 38.2308 146.439 37.6581L147.965 35.12H149.01V40.0573H148.146V37.9618C148.146 37.1591 148.168 36.7426 148.207 35.953H148.176C147.861 36.5821 147.649 36.9769 147.368 37.4759C146.919 38.2394 146.379 39.1896 145.852 40.0573H144.827V35.1287H145.67Z" fill="#333333"/>
<path d="M156.097 39.8622C155.654 40.0605 155.173 40.1582 154.688 40.1485C153.21 40.1485 152.247 39.1419 152.247 37.6365C152.232 37.2872 152.29 36.9387 152.417 36.6134C152.545 36.2881 152.739 35.9932 152.987 35.7479C153.235 35.5026 153.531 35.3122 153.857 35.1891C154.183 35.066 154.531 35.0129 154.878 35.0333C155.304 35.029 155.725 35.1163 156.114 35.2893L155.911 35.9791C155.593 35.8121 155.237 35.7313 154.878 35.7448C153.759 35.7448 153.15 36.5778 153.15 37.6061C153.129 37.8416 153.157 38.079 153.233 38.3028C153.309 38.5267 153.431 38.7319 153.591 38.9054C153.751 39.0788 153.946 39.2166 154.162 39.3096C154.379 39.4027 154.613 39.449 154.848 39.4456C155.226 39.4489 155.6 39.3658 155.941 39.2027L156.097 39.8622Z" fill="#333333"/>
<path d="M161.179 35.1287V40.0573H160.288V35.8489H158.011V40.0573H157.147V35.1287H161.179Z" fill="#333333"/>
<path d="M163.11 37.7493C163.091 37.9768 163.121 38.2058 163.198 38.4205C163.276 38.6353 163.398 38.8306 163.558 38.9931C163.718 39.1556 163.911 39.2814 164.124 39.3617C164.337 39.4421 164.564 39.4752 164.791 39.4587C165.257 39.4696 165.721 39.3778 166.148 39.1897L166.299 39.8318C165.783 40.0454 165.228 40.1488 164.67 40.1355C163.162 40.1355 162.263 39.1376 162.263 37.6538C162.263 36.17 163.127 35.0029 164.558 35.0029C166.157 35.0029 166.584 36.4173 166.584 37.3197C166.583 37.4648 166.573 37.6097 166.554 37.7536L163.11 37.7493ZM165.703 37.1115C165.703 36.5388 165.469 35.6581 164.467 35.6581C163.564 35.6581 163.171 36.4911 163.102 37.1115H165.703Z" fill="#333333"/>
<path d="M168.546 35.1287V39.3458H170.806V35.1287H171.67V39.3761H172.176L172.124 41.6018H171.437L171.394 40.04H167.66V35.1287H168.546Z" fill="#333333"/>
<path d="M176.484 35.1287V35.8402H174.954V40.0573H174.09V35.8489H172.56V35.1287H176.484Z" fill="#333333"/>
<path d="M177.629 37.7493C177.61 37.9783 177.64 38.209 177.718 38.425C177.797 38.6411 177.921 38.8374 178.083 39.0002C178.244 39.163 178.44 39.2884 178.655 39.3676C178.87 39.4467 179.099 39.4778 179.327 39.4587C179.788 39.4661 180.245 39.3744 180.667 39.1897L180.818 39.8318C180.302 40.0449 179.747 40.1483 179.189 40.1355C177.681 40.1355 176.778 39.1376 176.778 37.6538C176.778 36.17 177.642 35.0029 179.077 35.0029C180.676 35.0029 181.099 36.4173 181.099 37.3197C181.1 37.4649 181.09 37.61 181.069 37.7536L177.629 37.7493ZM180.222 37.1115C180.222 36.5388 179.989 35.6581 178.986 35.6581C178.087 35.6581 177.69 36.4911 177.621 37.1115H180.222Z" fill="#333333"/>
<path d="M182.581 35.1287L183.277 36.1873C183.458 36.4606 183.614 36.7122 183.774 36.9856H183.804C183.964 36.6949 184.128 36.4389 184.288 36.1743L184.979 35.1287H185.939L184.271 37.5062L185.999 40.0486H184.988L184.266 38.9379C184.076 38.6559 183.912 38.3783 183.744 38.0702H183.722C183.558 38.3609 183.389 38.6256 183.203 38.9379L182.486 40.0573H181.488L183.216 37.5453L181.557 35.1373L182.581 35.1287Z" fill="#333333"/>
<path d="M187.71 35.1287V37.1114H190.04V35.1287H190.904V40.0573H190.04V37.8229H187.71V40.0573H186.846V35.1287H187.71Z" fill="#333333"/>
<path d="M193.198 35.1287V37.2025C193.198 37.9835 193.198 38.4694 193.151 39.1722H193.181C193.471 38.5735 193.643 38.2308 193.967 37.6581L195.497 35.12H196.539V40.0573H195.674V37.9618C195.674 37.1591 195.696 36.7426 195.735 35.953H195.705C195.393 36.5821 195.182 36.9769 194.896 37.4759C194.451 38.2394 193.907 39.1896 193.38 40.0573H192.36V35.1287H193.198Z" fill="#333333"/>
<path d="M198.868 35.1287V37.2633H199.079L200.933 35.1287H202.013L199.879 37.3544C200.67 37.4368 201.145 37.9618 201.529 38.8468C201.675 39.2614 201.849 39.6658 202.048 40.0573H201.115C200.937 39.7343 200.786 39.3977 200.661 39.0508C200.324 38.2568 199.87 37.8924 199.04 37.8924H198.868V40.0616H198.003V35.1287H198.868Z" fill="#333333"/>
<path d="M203.655 35.1287V37.2025C203.655 37.9835 203.655 38.4694 203.608 39.1722H203.638C203.932 38.5735 204.101 38.2308 204.425 37.6581L205.954 35.12H206.983V40.0573H206.118V37.9618C206.118 37.1591 206.118 36.7426 206.179 35.953H206.149C205.833 36.5821 205.622 36.9769 205.336 37.4759C204.87 38.2394 204.334 39.1809 203.807 40.0486H202.787V35.1287H203.655Z" fill="#333333"/>
</g>
</g>
<defs>
<clipPath id="clip0_57_108">
<rect width="207" height="42" fill="white"/>
</clipPath>
<clipPath id="clip1_57_108">
<rect width="207" height="42.5833" fill="white" transform="translate(0 -0.291626)"/>
</clipPath>
</defs>
</svg>
