<svg width="208" height="43" viewBox="0 0 208 43" fill="none" xmlns="http://www.w3.org/2000/svg">
<g clip-path="url(#clip0_414_1405)">
<path d="M9.3353 21.4667C9.3353 24.6475 10.5704 27.698 12.769 29.9471C14.9676 32.1962 17.9495 33.4598 21.0587 33.4598C21.3397 33.4521 21.6193 33.5018 21.8813 33.606C22.1432 33.7101 22.3823 33.8666 22.5844 34.0664C22.7865 34.2662 22.9477 34.5051 23.0585 34.7694C23.1693 35.0336 23.2275 35.3177 23.2298 35.6052V42.0016C23.1944 42.3393 23.0383 42.6517 22.7915 42.8788C22.5446 43.1059 22.2244 43.2317 21.8924 43.232H19.5607C19.2225 43.2282 18.8981 43.0939 18.6525 42.8558C18.4069 42.6178 18.2583 42.2936 18.2364 41.9483L17.8934 36.618C16.2455 36.2434 14.6707 35.5888 13.2344 34.6813L9.01833 38.0971C8.75718 38.3079 8.42898 38.4123 8.09703 38.3902C7.76509 38.368 7.45292 38.2209 7.22074 37.9772L5.1496 35.814C4.95826 35.6136 4.83123 35.3583 4.78546 35.0821C4.73968 34.8059 4.77735 34.522 4.89342 34.2682C4.94764 34.1469 5.01936 34.0346 5.10618 33.9351L8.57979 29.9729C8.51466 29.8663 8.44953 29.7641 8.38874 29.6531C8.32795 29.5421 8.3019 29.511 8.26282 29.4399C7.46562 28.0935 6.87957 26.6277 6.52602 25.0957C6.52602 25.0646 6.52602 25.0291 6.50431 24.998C6.4838 24.9356 6.46783 24.8718 6.45654 24.807L1.24612 24.2429C0.905592 24.2159 0.587696 24.0579 0.356466 23.8008C0.125235 23.5436 -0.00215134 23.2064 -3.50842e-05 22.857V19.8232C-0.000684196 19.4745 0.128834 19.1387 0.362059 18.8844C0.595283 18.6302 0.914613 18.4766 1.25481 18.4551L6.43918 18.1042C6.75292 16.5956 7.29496 15.1464 8.04572 13.8089C8.1369 13.6356 8.23677 13.4668 8.34098 13.298L5.21038 9.21149C5.16195 9.14936 5.11976 9.08239 5.08447 9.0116C4.94386 8.74997 4.89108 8.44836 4.93422 8.15307C4.97736 7.85778 5.11404 7.58513 5.32328 7.37699L7.42481 5.25376C7.668 5.00875 7.99332 4.86776 8.33455 4.85951C8.67578 4.85126 9.00725 4.97636 9.26149 5.20934L12.8697 8.51411C14.3935 7.47025 16.0897 6.71775 17.876 6.29316L18.4318 0.931793C18.4672 0.594085 18.6233 0.281653 18.8701 0.054538C19.117 -0.172577 19.4372 -0.298351 19.7692 -0.298612H22.7348C23.0756 -0.299276 23.4038 -0.166779 23.6524 0.071811C23.901 0.310401 24.0511 0.637076 24.0721 0.985096L24.4108 6.25763C25.1651 6.41304 25.9057 6.63142 26.6252 6.91059L25.9218 7.79897C25.4727 8.3851 24.8887 8.84842 24.222 9.14759C23.5553 9.44675 22.8266 9.57247 22.1008 9.51354C21.7578 9.47356 21.4104 9.47356 21.0587 9.47356C17.9495 9.47356 14.9676 10.7371 12.769 12.9863C10.5704 15.2354 9.3353 18.2859 9.3353 21.4667Z" fill="white"/>
<path d="M26.6252 6.91059L25.0751 8.89612C24.8459 9.19049 24.5438 9.41662 24.2001 9.55099C23.8565 9.68536 23.4839 9.72304 23.1212 9.66012C20.4438 9.16292 17.6807 9.63404 15.3056 10.9927L12.8654 8.4919C14.3892 7.44804 16.0854 6.69555 17.8717 6.27095L18.4319 0.931793C18.4672 0.594085 18.6233 0.281653 18.8702 0.054538C19.117 -0.172577 19.4372 -0.298351 19.7692 -0.298612H22.7348C23.0756 -0.299276 23.4039 -0.166779 23.6524 0.071811C23.901 0.310401 24.0511 0.637076 24.0721 0.985096L24.4108 6.25763C25.1652 6.41304 25.9058 6.63142 26.6252 6.91059Z" fill="#2D90C5"/>
<path d="M23.2298 33.4598V42.0016C23.1944 42.3393 23.0384 42.6517 22.7915 42.8788C22.5446 43.1059 22.2245 43.2317 21.8924 43.232H19.5608C19.2225 43.2282 18.8981 43.0939 18.6525 42.8558C18.407 42.6178 18.2583 42.2936 18.2365 41.9483L17.8935 36.618C16.2455 36.2434 14.6707 35.5888 13.2345 34.6813L16.0655 32.3094C17.6261 33.0664 19.3316 33.4593 21.0588 33.4598H23.2298Z" fill="#2D90C5"/>
<path d="M9.2181 30.0884L4.87608 34.2727C4.9303 34.1514 5.00202 34.0391 5.08884 33.9395L8.56246 29.9774C8.49733 29.8708 8.4322 29.7686 8.37141 29.6575C8.31062 29.5465 8.28457 29.5154 8.24549 29.4443L9.2181 30.0884Z" fill="#2D90C5"/>
<path d="M6.43053 24.7892L1.22011 24.2251C0.966021 24.1968 0.725054 24.0951 0.525383 23.9319L6.93854 24.2251L6.50434 25.0824L6.43053 24.7892Z" fill="#2D90C5"/>
<path d="M6.92118 18.6905L0.729462 18.6017C0.893042 18.5168 1.0718 18.4669 1.25485 18.4551L6.43921 18.1042C6.43921 18.0198 6.47829 17.9354 6.5 17.851L6.92118 18.6905Z" fill="#2D90C5"/>
<path d="M8.05444 13.8C8.14563 13.6267 8.24549 13.4579 8.3497 13.2891L5.21042 9.21148C5.16198 9.14936 5.1198 9.08239 5.0845 9.0116L9.11824 13.2847L8.05444 13.8Z" fill="#2D90C5"/>
<path d="M30.1944 17.3713V27.4766H28.0494V23.4344H20.3641V21.2135H28.0494V18.4684C28.0494 18.2245 27.9547 17.9907 27.7862 17.8182C27.6176 17.6458 27.389 17.5489 27.1506 17.5489H18.8574C18.619 17.5489 18.3904 17.6458 18.2218 17.8182C18.0533 17.9907 17.9586 18.2245 17.9586 18.4684V27.4766H15.7876V17.3713C15.7875 17.1024 15.8399 16.8363 15.9416 16.5885C16.0433 16.3406 16.1924 16.116 16.38 15.9278C16.5676 15.7396 16.79 15.5916 17.0342 15.4924C17.2785 15.3932 17.5396 15.3449 17.8023 15.3502H28.2231C28.7463 15.3514 29.2477 15.5648 29.6173 15.9437C29.9868 16.3226 30.1944 16.836 30.1944 17.3713Z" fill="white"/>
<path d="M108.212 17.3713V27.4766H106.067V23.4345H98.3814V21.2135H106.067V18.4684C106.066 18.2241 105.97 17.9903 105.801 17.818C105.632 17.6457 105.402 17.5489 105.164 17.5489H96.8748C96.7553 17.5466 96.6365 17.5686 96.5255 17.6138C96.4144 17.6589 96.3133 17.7263 96.2279 17.8119C96.1426 17.8975 96.0749 17.9997 96.0286 18.1124C95.9824 18.2251 95.9586 18.3462 95.9586 18.4684V27.4766H93.8093V17.3713C93.8093 17.1059 93.8604 16.843 93.9597 16.5978C94.059 16.3526 94.2045 16.1298 94.3879 15.9422C94.5714 15.7545 94.7892 15.6056 95.0289 15.504C95.2686 15.4025 95.5255 15.3502 95.7849 15.3502H106.206C106.468 15.3461 106.728 15.3953 106.971 15.495C107.214 15.5947 107.436 15.743 107.622 15.931C107.809 16.1191 107.957 16.3433 108.059 16.5906C108.16 16.8378 108.212 17.1032 108.212 17.3713Z" fill="white"/>
<path d="M34.3019 19.2102V23.6166C34.3014 23.8349 34.343 24.0512 34.4244 24.253C34.5058 24.4548 34.6254 24.6382 34.7763 24.7926C34.9272 24.9469 35.1064 25.0693 35.3037 25.1526C35.501 25.2359 35.7124 25.2784 35.9258 25.2778H43.0554V22.3551H38.683V20.1341H45.1961V27.4766H35.1009C34.7141 27.4772 34.331 27.3997 33.9736 27.2485C33.6162 27.0974 33.2914 26.8756 33.0179 26.5958C32.7445 26.316 32.5276 25.9838 32.3799 25.6182C32.2322 25.2525 32.1564 24.8606 32.157 24.465V18.3574C32.1564 17.9617 32.2322 17.5698 32.3799 17.2042C32.5276 16.8385 32.7445 16.5063 33.0179 16.2265C33.2914 15.9468 33.6162 15.7249 33.9736 15.5738C34.331 15.4227 34.7141 15.3452 35.1009 15.3458H45.2047V17.5667H35.9302C35.5014 17.5643 35.0892 17.736 34.784 18.0441C34.4787 18.3522 34.3054 18.7716 34.3019 19.2102Z" fill="white"/>
<path d="M80.9656 19.2102V23.6166C80.9656 24.0572 81.1367 24.4797 81.4412 24.7913C81.7458 25.1028 82.1588 25.2778 82.5895 25.2778H89.7148V22.3551H85.3424V20.1341H91.8554V27.4766H81.7602C81.3734 27.4772 80.9904 27.3997 80.6329 27.2485C80.2755 27.0974 79.9508 26.8756 79.6773 26.5958C79.4038 26.316 79.187 25.9838 79.0392 25.6182C78.8915 25.2525 78.8157 24.8606 78.8163 24.465V18.3574C78.8157 17.9617 78.8915 17.5698 79.0392 17.2042C79.187 16.8385 79.4038 16.5063 79.6773 16.2265C79.9508 15.9468 80.2755 15.7249 80.6329 15.5738C80.9904 15.4227 81.3734 15.3452 81.7602 15.3458H91.8641V17.5667H82.5895C82.1618 17.5667 81.7514 17.7393 81.4473 18.047C81.1433 18.3547 80.9702 18.7727 80.9656 19.2102Z" fill="white"/>
<path d="M66.3894 17.5489V20.2452H76.8537V22.4661H66.3894V25.2867H76.8537V27.5077H64.9522C64.7741 27.5035 64.6041 27.4307 64.4761 27.3039C64.3482 27.1771 64.2716 27.0056 64.2619 26.8236V16.0698C64.263 15.8785 64.3381 15.6955 64.4707 15.5607C64.6033 15.4259 64.7827 15.3502 64.9696 15.3502H76.8537V17.5711L66.3894 17.5489Z" fill="white"/>
<path d="M207.983 15.248V24.7048C207.983 25.4706 207.685 26.205 207.156 26.7464C206.627 27.2879 205.909 27.5921 205.16 27.5921H196.311C195.563 27.5921 194.845 27.2879 194.316 26.7464C193.786 26.205 193.489 25.4706 193.489 24.7048V15.3502H195.634V24.194C195.634 24.5015 195.753 24.7964 195.966 25.0138C196.178 25.2312 196.467 25.3533 196.767 25.3533H204.678C204.979 25.3533 205.267 25.2312 205.48 25.0138C205.692 24.7964 205.812 24.5015 205.812 24.194V15.248H207.983Z" fill="white"/>
<path d="M174.449 27.4766V25.2778H171.874V27.4766H174.449Z" fill="white"/>
<path d="M59.312 23.0436H57.2191L61.1269 27.4855H57.2191L51.3747 20.8448H59.2772C59.5075 20.8448 59.7284 20.7512 59.8913 20.5846C60.0541 20.418 60.1456 20.192 60.1456 19.9564V18.424C60.1456 18.1884 60.0541 17.9624 59.8913 17.7958C59.7284 17.6292 59.5075 17.5356 59.2772 17.5356H49.9679C49.882 17.5356 49.797 17.553 49.7177 17.5867C49.6384 17.6205 49.5664 17.67 49.5058 17.7323C49.4453 17.7947 49.3974 17.8686 49.365 17.95C49.3325 18.0313 49.3161 18.1185 49.3166 18.2063V27.4766H47.1456V15.3502H59.3033C60.0913 15.3502 60.8472 15.6701 61.4049 16.2398C61.9625 16.8095 62.2764 17.5822 62.2775 18.3884V20.0053C62.2764 20.81 61.9637 21.5814 61.4079 22.1508C60.8522 22.7202 60.0985 23.0412 59.312 23.0436Z" fill="white"/>
<path d="M188.556 23.0436H186.459L190.367 27.4855H186.459L180.628 20.8448H188.535C188.765 20.8448 188.986 20.7512 189.149 20.5846C189.312 20.418 189.403 20.192 189.403 19.9564V18.424C189.403 18.1884 189.312 17.9624 189.149 17.7958C188.986 17.6292 188.765 17.5356 188.535 17.5356H179.212C179.039 17.5356 178.872 17.6063 178.749 17.7321C178.626 17.8578 178.557 18.0284 178.557 18.2063V27.4766H176.386V15.3502H188.543C189.331 15.3502 190.087 15.6703 190.643 16.2401C191.2 16.8099 191.513 17.5827 191.513 18.3884V20.0053C191.513 20.8088 191.202 21.5796 190.648 22.149C190.094 22.7184 189.342 23.04 188.556 23.0436Z" fill="white"/>
<path d="M124.095 15.3502V17.5489H118.207V27.4766H116.062V17.5489H110.174V15.3502H124.095Z" fill="white"/>
<path d="M128.198 17.5489V20.2452H138.662V22.4661H128.198V25.2867H138.662V27.5077H126.761C126.574 27.5077 126.395 27.432 126.262 27.2972C126.129 27.1623 126.054 26.9793 126.053 26.7881V16.0698C126.054 15.8785 126.129 15.6955 126.262 15.5607C126.395 15.4259 126.574 15.3502 126.761 15.3502H138.662V17.5711L128.198 17.5489Z" fill="#2D90C5"/>
<path d="M169.912 19.2146V17.5489C169.915 17.2585 169.862 16.9703 169.756 16.701C169.65 16.4317 169.492 16.1867 169.293 15.9801C169.093 15.7735 168.856 15.6095 168.594 15.4975C168.332 15.3856 168.051 15.328 167.767 15.328H155.153V27.4544H167.767C168.338 27.4474 168.884 27.2103 169.285 26.7945C169.687 26.3788 169.912 25.8179 169.912 25.2334V23.5944C169.912 23.032 169.701 22.4911 169.322 22.0841C168.943 21.677 168.425 21.4352 167.875 21.4089H167.767C167.803 21.4046 167.839 21.4046 167.875 21.4089C168.425 21.3804 168.943 21.1367 169.322 20.7283C169.702 20.3198 169.913 19.7779 169.912 19.2146ZM166.938 25.2778H157.303V22.5105H166.938C167.157 22.5117 167.367 22.6015 167.523 22.7603C167.678 22.9192 167.766 23.1343 167.767 23.3589V24.4294C167.766 24.6541 167.678 24.8692 167.523 25.0281C167.367 25.1869 167.157 25.2767 166.938 25.2778ZM166.938 20.3162H157.303V17.5489H166.938C167.157 17.5501 167.367 17.6399 167.523 17.7987C167.678 17.9576 167.766 18.1727 167.767 18.3973V19.4678C167.766 19.6925 167.678 19.9076 167.523 20.0665C167.367 20.2253 167.157 20.3151 166.938 20.3162Z" fill="#2D90C5"/>
<path d="M147.455 21.4045L153.191 27.4366L149.856 27.4588L145.145 22.5105H142.774V27.4766H140.625V15.3502H142.774V20.3162H145.132L149.856 15.3502L153.191 15.3724L147.455 21.4045Z" fill="#2D90C5"/>
<path d="M32.665 34.4059C33.2035 34.0484 33.8337 33.8628 34.4756 33.8729C35.6653 33.8729 36.486 34.5081 36.486 35.5919C36.4771 35.9985 36.3321 36.3897 36.0753 36.7001C35.8185 37.0105 35.4653 37.2214 35.0748 37.2976C35.5255 37.3093 35.9535 37.5024 36.2657 37.8351C36.5779 38.1679 36.7492 38.6132 36.7422 39.0744C36.7422 40.5313 35.5134 41.1132 34.2629 41.1132C33.6369 41.1332 33.0173 40.9797 32.4696 40.669L32.7041 39.9627C33.1736 40.2362 33.7012 40.3886 34.2411 40.4069C35.2572 40.4069 35.8173 39.8473 35.8173 39.0744C35.8173 38.0261 34.8317 37.7418 33.9546 37.7418H33.5508V37.0133H33.9546C34.8621 37.0133 35.5611 36.4403 35.5611 35.7252C35.5611 35.01 35.0748 34.6191 34.3323 34.6191C33.8274 34.6348 33.3357 34.7881 32.9081 35.0633L32.665 34.4059Z" fill="white"/>
<path d="M40.6283 41.011L40.5588 40.3758H40.5284C40.353 40.6134 40.1249 40.805 39.863 40.9348C39.601 41.0645 39.3127 41.1287 39.0217 41.1221C38.8282 41.1368 38.6339 41.1104 38.4509 41.0443C38.2679 40.9783 38.1003 40.8741 37.9587 40.7385C37.8171 40.6028 37.7046 40.4385 37.6282 40.2561C37.5518 40.0736 37.5133 39.8769 37.515 39.6785C37.515 38.4614 38.5745 37.7951 40.4763 37.804V37.7018C40.4963 37.5455 40.4814 37.3865 40.4325 37.237C40.3836 37.0874 40.3021 36.9512 40.1942 36.8387C40.0863 36.7261 39.9547 36.6402 39.8095 36.5873C39.6643 36.5344 39.5092 36.5161 39.356 36.5336C38.8958 36.5315 38.4442 36.6623 38.0534 36.9111L37.8494 36.3071C38.3383 36.0077 38.8992 35.8538 39.4689 35.8629C40.9713 35.8629 41.3403 36.9156 41.3403 37.9239V39.8073C41.3406 40.2107 41.374 40.6133 41.4402 41.011H40.6283ZM40.498 38.4392C39.521 38.4392 38.4095 38.5946 38.4095 39.5718C38.398 39.6914 38.4126 39.8121 38.4522 39.9252C38.4918 40.0383 38.5554 40.1411 38.6384 40.226C38.7215 40.311 38.8219 40.3761 38.9325 40.4165C39.043 40.457 39.161 40.472 39.2779 40.4602C39.538 40.4665 39.7933 40.3882 40.0071 40.2365C40.2209 40.0848 40.3822 39.8677 40.4676 39.6163C40.4995 39.5234 40.5171 39.426 40.5197 39.3275L40.498 38.4392Z" fill="white"/>
<path d="M46.8547 35.965V41.011H45.9603V36.7024H43.672V41.011H42.8036V35.965H46.8547Z" fill="white"/>
<path d="M49.0127 35.965V37.6174C49.0127 38.2526 49.2472 38.6924 50.0287 38.6924C50.4078 38.6882 50.7764 38.564 51.0838 38.337V35.965H51.9522V41.011H51.0838V38.9811C50.6824 39.2321 50.2213 39.3657 49.7508 39.3675C48.813 39.3675 48.1313 38.8789 48.1313 37.724V35.9473L49.0127 35.965Z" fill="white"/>
<path d="M56.164 41.011L56.0902 40.3758H56.0598C55.8847 40.6137 55.6566 40.8055 55.3946 40.9353C55.1326 41.065 54.8441 41.1291 54.5531 41.1221C54.3598 41.1369 54.1657 41.1104 53.9829 41.0443C53.8002 40.9782 53.6329 40.874 53.4916 40.7383C53.3503 40.6025 53.2382 40.4382 53.1623 40.2558C53.0864 40.0733 53.0484 39.8767 53.0508 39.6785C53.0508 38.4614 54.1059 37.7951 56.0077 37.804V37.7018C56.0285 37.5457 56.0142 37.3868 55.9659 37.2373C55.9175 37.0877 55.8365 36.9514 55.7288 36.8387C55.6212 36.726 55.4899 36.64 55.3448 36.5871C55.1997 36.5342 55.0448 36.5159 54.8918 36.5336C54.4313 36.53 53.9794 36.661 53.5892 36.9112L53.4068 36.2982C53.894 35.9985 54.4536 35.8446 55.022 35.854C56.5287 35.854 56.8935 36.9067 56.8935 37.915V39.7984C56.8875 40.2028 56.9151 40.607 56.976 41.0066L56.164 41.011ZM56.012 38.4303C55.0351 38.4303 53.9279 38.5857 53.9279 39.563C53.9162 39.6803 53.9297 39.7988 53.9675 39.9102C54.0053 40.0216 54.0665 40.1232 54.1468 40.2078C54.2271 40.2925 54.3245 40.3581 54.4321 40.4002C54.5398 40.4423 54.6552 40.4597 54.7702 40.4513C55.0306 40.459 55.2866 40.3812 55.5006 40.2294C55.7147 40.0775 55.8757 39.8596 55.9599 39.6074C55.9919 39.5145 56.0094 39.4171 56.012 39.3187V38.4303Z" fill="white"/>
<path d="M61.8477 40.8112C61.4042 41.0142 60.9223 41.1144 60.4365 41.1043C58.9516 41.1043 57.9833 40.0738 57.9833 38.5325C57.9681 38.1749 58.0265 37.8181 58.1545 37.485C58.2826 37.152 58.4775 36.8501 58.7267 36.5989C58.9759 36.3478 59.2738 36.1529 59.6013 36.0268C59.9287 35.9008 60.2783 35.8465 60.6276 35.8673C61.0551 35.8629 61.4785 35.9523 61.8694 36.1294L61.6566 36.8268C61.3368 36.6563 60.9793 36.5737 60.6189 36.5869C59.49 36.5869 58.8821 37.4398 58.8821 38.4925C58.8821 39.6563 59.6116 40.3758 60.5885 40.3758C60.9683 40.378 61.3436 40.293 61.687 40.1271L61.8477 40.8112Z" fill="white"/>
<path d="M66.3851 35.965V36.6935H64.848V41.011H63.9796V36.7024H62.4425V35.965H66.3851Z" fill="white"/>
<path d="M67.9916 35.965V38.0883C67.9916 38.8878 67.9916 39.3853 67.9439 40.1049H67.9743C68.2695 39.4919 68.4389 39.141 68.7645 38.5547L70.3016 35.9561H71.348V41.011H70.4796V38.8656C70.4796 38.0438 70.4796 37.6174 70.5404 36.809H70.51C70.1931 37.4531 69.9803 37.8573 69.6937 38.3681C69.2421 39.1499 68.7037 40.1226 68.1697 41.011H67.1406V35.965H67.9916Z" fill="white"/>
<path d="M78.7772 35.965V40.3137H79.2852L79.2331 42.5923H78.5297L78.4907 40.9933H75.0822L75.0431 42.5923H74.3397L74.3006 40.3137H74.7348C74.9459 39.9967 75.1098 39.6494 75.2211 39.2831C75.4176 38.6331 75.5143 37.9558 75.5077 37.2754V35.9428L78.7772 35.965ZM76.2849 37.493C76.2878 38.1272 76.2015 38.7585 76.0287 39.3675C75.9296 39.6933 75.7972 40.0075 75.6336 40.3048H77.9001V36.6624H76.2849V37.493Z" fill="white"/>
<path d="M84.1353 35.965V41.011H83.2669V36.6802H81.5822V38.0127C81.5822 39.4253 81.4476 40.3714 80.8093 40.7978C80.5326 41.0221 80.1848 41.1344 79.8323 41.1132L79.7411 40.3936C79.9176 40.366 80.0846 40.2943 80.2275 40.1848C80.6877 39.8428 80.7355 39.1365 80.7355 38.0127V35.965H84.1353Z" fill="white"/>
<path d="M89.2328 41.011H88.3644V38.8878H87.7088C87.409 38.8709 87.1142 38.9709 86.8838 39.1676C86.519 39.4697 86.3844 40.096 86.1934 40.5846C86.1288 40.7316 86.0549 40.874 85.9719 41.011H85.0167C85.1362 40.8307 85.238 40.6388 85.3206 40.438C85.5334 39.9494 85.655 39.292 86.0935 38.9189C86.2505 38.7706 86.4442 38.6692 86.6536 38.6257V38.5946C86.011 38.5236 85.351 38.1149 85.351 37.3465C85.3492 37.1203 85.4092 36.8981 85.5243 36.7051C85.6394 36.512 85.805 36.3556 86.0023 36.2538C86.5163 36.002 87.0831 35.8845 87.6523 35.9117C88.182 35.9161 88.7111 35.9502 89.2371 36.0139L89.2328 41.011ZM88.3644 36.5691C88.1186 36.5323 87.8704 36.5145 87.6219 36.5158C87.014 36.5158 86.2889 36.6935 86.2889 37.4042C86.2889 38.1149 87.0748 38.2926 87.5915 38.2926H88.3557L88.3644 36.5691Z" fill="white"/>
<path d="M95.8457 35.965V36.7024H93.7094V41.011H92.841V35.965H95.8457Z" fill="white"/>
<path d="M96.688 37.6085C96.688 36.9645 96.688 36.4448 96.649 35.965H97.4522L97.4913 36.8268H97.513C97.6896 36.5189 97.9442 36.2656 98.2499 36.0936C98.5557 35.9216 98.9011 35.8373 99.2498 35.8495C100.44 35.8495 101.334 36.8801 101.334 38.4081C101.334 40.2204 100.257 41.1132 99.0979 41.1132C98.8002 41.1254 98.5045 41.0591 98.2391 40.9206C97.9737 40.7822 97.7476 40.5762 97.5825 40.3225H97.5608V43.0588H96.6924L96.688 37.6085ZM97.5564 38.9411C97.5586 39.0667 97.5731 39.1917 97.5999 39.3142C97.6737 39.6211 97.846 39.8938 98.0893 40.0887C98.3325 40.2836 98.6326 40.3894 98.9415 40.3892C99.8881 40.3892 100.435 39.5985 100.435 38.4436C100.453 37.4575 99.9359 36.5691 98.998 36.5691C98.6816 36.5784 98.3771 36.6945 98.132 36.8994C97.8869 37.1043 97.7151 37.3865 97.6433 37.7018C97.6076 37.8246 97.5872 37.9514 97.5825 38.0794L97.5564 38.9411Z" fill="white"/>
<path d="M102.702 35.965L103.779 38.9411C103.891 39.2742 104.013 39.6696 104.096 39.9716C104.187 39.6696 104.287 39.2831 104.408 38.9189L105.385 35.965H106.332L104.99 39.5541C104.347 41.282 103.909 42.1659 103.301 42.7078C102.991 42.9993 102.613 43.203 102.202 43.2986L101.977 42.5301C102.264 42.4345 102.53 42.2837 102.763 42.086C103.087 41.8111 103.344 41.4628 103.514 41.0688C103.549 40.9993 103.573 40.9242 103.583 40.8467C103.576 40.7638 103.556 40.6827 103.522 40.6068L101.703 35.9695L102.702 35.965Z" fill="white"/>
<path d="M107.626 38.0749H108.06C108.815 38.0749 109.323 37.724 109.323 37.2532C109.323 36.7823 108.924 36.5247 108.368 36.5247C107.946 36.5336 107.535 36.6562 107.174 36.8801L106.953 36.3204C107.447 36.02 108.014 35.8662 108.59 35.8762C109.341 35.8762 110.257 36.2227 110.257 37.2088C110.226 37.5002 110.098 37.7719 109.895 37.9787C109.692 38.1856 109.426 38.3152 109.141 38.3459C109.87 38.4081 110.483 38.8656 110.483 39.6074C110.483 40.7001 109.393 41.1043 108.359 41.1043C107.802 41.1066 107.253 40.9677 106.762 40.7001L106.996 40.0827C107.396 40.3043 107.843 40.4231 108.299 40.4291C109.037 40.4291 109.506 40.0649 109.506 39.5408C109.506 38.8656 108.815 38.679 108.073 38.679H107.639L107.626 38.0749Z" fill="white"/>
<path d="M116.058 38.4392C116.058 40.3048 114.794 41.1043 113.605 41.1043C112.276 41.1043 111.247 40.1049 111.247 38.5147C111.247 36.8312 112.324 35.8495 113.687 35.8495C115.05 35.8495 116.058 36.9023 116.058 38.4392ZM112.15 38.4925C112.15 39.5941 112.771 40.4291 113.648 40.4291C114.525 40.4291 115.142 39.6074 115.142 38.4703C115.142 37.6174 114.707 36.538 113.67 36.538C112.632 36.538 112.15 37.5375 112.15 38.4925Z" fill="white"/>
<path d="M117.165 36.0272C117.684 35.949 118.208 35.9103 118.732 35.9117C119.557 35.9117 120.903 36.0494 120.903 37.1732C120.891 37.4562 120.781 37.7254 120.592 37.9328C120.404 38.1403 120.149 38.2725 119.874 38.3059C120.6 38.4081 121.125 38.8256 121.125 39.5541C121.125 40.8867 119.497 41.0421 118.52 41.0421C117.973 41.0421 117.399 40.9977 117.135 40.9799L117.165 36.0272ZM118.033 40.3981C118.273 40.4277 118.513 40.4411 118.754 40.438C119.353 40.438 120.248 40.2914 120.248 39.5496C120.248 38.8079 119.536 38.6613 118.685 38.6613H118.033V40.3981ZM118.033 38.0749H118.706C119.366 38.0749 120.048 37.8795 120.048 37.2843C120.048 36.7868 119.614 36.5469 118.745 36.5469C118.45 36.5469 118.264 36.5469 118.051 36.5869L118.033 38.0749Z" fill="white"/>
<path d="M123.096 35.965V38.0883C123.096 38.8878 123.096 39.3853 123.048 40.1049H123.079C123.374 39.4919 123.543 39.141 123.869 38.5547L125.406 35.9561H126.453V41.011H125.584V38.8656C125.584 38.0438 125.584 37.6174 125.645 36.809H125.615C125.298 37.4531 125.085 37.8573 124.798 38.3681C124.329 39.1499 123.791 40.1138 123.261 41.0021H122.236V35.965H123.096Z" fill="white"/>
<path d="M128.793 35.965V38.1504H129.006L130.86 35.965H131.945L129.8 38.2437C130.595 38.3281 131.072 38.8656 131.459 39.7717C131.611 40.1966 131.791 40.6106 131.997 41.011H131.059C130.881 40.6803 130.729 40.3357 130.604 39.9805C130.261 39.1588 129.8 38.7901 128.958 38.7901H128.784V41.011H127.916V35.965H128.793Z" fill="white"/>
<path d="M137.177 38.4392C137.177 40.3048 135.914 41.1043 134.724 41.1043C133.391 41.1043 132.366 40.1049 132.366 38.5147C132.366 36.8312 133.443 35.8495 134.807 35.8495C136.17 35.8495 137.177 36.9023 137.177 38.4392ZM133.27 38.4925C133.27 39.5941 133.89 40.4291 134.768 40.4291C135.645 40.4291 136.261 39.6074 136.261 38.4703C136.261 37.6174 135.827 36.538 134.785 36.538C133.743 36.538 133.27 37.5375 133.27 38.4925Z" fill="white"/>
<path d="M138.285 36.0272C138.804 35.9488 139.327 35.9102 139.852 35.9117C140.677 35.9117 142.023 36.0494 142.023 37.1732C142.012 37.4558 141.902 37.7249 141.714 37.9325C141.527 38.14 141.273 38.2724 140.998 38.3059C141.719 38.4081 142.249 38.8256 142.249 39.5541C142.249 40.8867 140.621 41.0421 139.644 41.0421C139.092 41.0421 138.523 40.9977 138.259 40.9799L138.285 36.0272ZM139.131 40.398C139.37 40.4278 139.611 40.4412 139.852 40.438C140.451 40.438 141.346 40.2914 141.346 39.5496C141.346 38.8078 140.634 38.6613 139.783 38.6613H139.131V40.398ZM139.131 38.0749H139.813C140.473 38.0749 141.155 37.8795 141.155 37.2843C141.155 36.7868 140.72 36.5469 139.852 36.5469C139.557 36.5469 139.374 36.5469 139.162 36.5869L139.131 38.0749Z" fill="white"/>
<path d="M146.374 35.965V38.0883C146.374 38.8878 146.374 39.3853 146.322 40.1049H146.352C146.647 39.4919 146.821 39.141 147.147 38.5547L148.679 35.9561H149.73V41.011H148.862V38.8656C148.862 38.0438 148.883 37.6174 148.923 36.809H148.892C148.575 37.4531 148.362 37.8573 148.08 38.3681C147.629 39.1499 147.086 40.1226 146.556 41.011H145.527V35.965H146.374Z" fill="white"/>
<path d="M156.851 40.8112C156.406 41.0142 155.923 41.1143 155.436 41.1043C153.951 41.1043 152.982 40.0738 152.982 38.5325C152.967 38.1749 153.025 37.8181 153.153 37.485C153.282 37.152 153.476 36.8501 153.726 36.5989C153.975 36.3478 154.273 36.1529 154.6 36.0268C154.928 35.9008 155.277 35.8465 155.627 35.8673C156.054 35.8629 156.478 35.9523 156.868 36.1294L156.664 36.8357C156.345 36.6646 155.987 36.5819 155.627 36.5958C154.502 36.5958 153.89 37.4486 153.89 38.5014C153.868 38.7425 153.897 38.9855 153.973 39.2147C154.05 39.4439 154.172 39.654 154.333 39.8316C154.494 40.0092 154.69 40.1502 154.907 40.2455C155.125 40.3408 155.36 40.3882 155.596 40.3847C155.976 40.3881 156.352 40.303 156.695 40.136L156.851 40.8112Z" fill="white"/>
<path d="M161.957 35.965V41.011H161.063V36.7024H158.775V41.011H157.906V35.965H161.957Z" fill="white"/>
<path d="M163.898 38.6479C163.879 38.8809 163.909 39.1153 163.987 39.3352C164.064 39.555 164.188 39.755 164.348 39.9214C164.509 40.0877 164.703 40.2165 164.917 40.2988C165.13 40.3811 165.359 40.4149 165.587 40.398C166.056 40.4092 166.521 40.3152 166.951 40.1226L167.103 40.78C166.584 40.9988 166.026 41.1047 165.466 41.091C163.95 41.091 163.047 40.0693 163.047 38.5502C163.047 37.0311 163.916 35.8362 165.353 35.8362C166.959 35.8362 167.389 37.2843 167.389 38.2082C167.387 38.3567 167.377 38.505 167.359 38.6524L163.898 38.6479ZM166.503 37.995C166.503 37.4086 166.269 36.5069 165.262 36.5069C164.354 36.5069 163.959 37.3598 163.889 37.995H166.503Z" fill="white"/>
<path d="M169.36 35.965V40.2826H171.631V35.965H172.5V40.3136H173.008L172.956 42.5923H172.265L172.222 40.9933H168.47V35.965H169.36Z" fill="white"/>
<path d="M177.337 35.965V36.6935H175.8V41.011H174.931V36.7024H173.394V35.965H177.337Z" fill="white"/>
<path d="M178.487 38.6479C178.468 38.8825 178.498 39.1186 178.577 39.3398C178.655 39.561 178.78 39.762 178.943 39.9287C179.105 40.0953 179.302 40.2237 179.518 40.3048C179.734 40.3858 179.964 40.4177 180.194 40.398C180.656 40.4057 181.115 40.3118 181.54 40.1226L181.692 40.78C181.173 40.9983 180.616 41.1041 180.055 41.091C178.539 41.091 177.632 40.0693 177.632 38.5502C177.632 37.0311 178.5 35.8362 179.942 35.8362C181.548 35.8362 181.974 37.2843 181.974 38.2082C181.975 38.3568 181.965 38.5053 181.944 38.6524L178.487 38.6479ZM181.093 37.995C181.093 37.4086 180.858 36.5069 179.851 36.5069C178.948 36.5069 178.548 37.3598 178.479 37.995H181.093Z" fill="white"/>
<path d="M183.463 35.965L184.162 37.0489C184.345 37.3287 184.501 37.5863 184.662 37.8662H184.692C184.853 37.5686 185.018 37.3065 185.178 37.0355L185.873 35.965H186.837L185.161 38.3992L186.898 41.0021H185.882L185.157 39.865C184.966 39.5763 184.801 39.292 184.631 38.9766H184.61C184.445 39.2742 184.275 39.5452 184.089 39.865L183.368 41.011H182.365L184.102 38.4392L182.434 35.9739L183.463 35.965Z" fill="white"/>
<path d="M188.617 35.965V37.995H190.958V35.965H191.826V41.011H190.958V38.7234H188.617V41.011H187.749V35.965H188.617Z" fill="white"/>
<path d="M194.132 35.965V38.0883C194.132 38.8878 194.132 39.3853 194.084 40.1049H194.114C194.405 39.4919 194.579 39.141 194.904 38.5547L196.442 35.9561H197.488V41.011H196.62V38.8656C196.62 38.0438 196.641 37.6174 196.68 36.809H196.65C196.337 37.4531 196.125 37.8573 195.838 38.3681C195.391 39.1499 194.844 40.1226 194.314 41.011H193.289V35.965H194.132Z" fill="white"/>
<path d="M199.828 35.965V38.1504H200.041L201.904 35.965H202.989L200.844 38.2437C201.639 38.3281 202.117 38.8656 202.503 39.7717C202.65 40.1962 202.824 40.6102 203.024 41.011H202.086C201.908 40.6803 201.756 40.3357 201.63 39.9805C201.292 39.1676 200.836 38.7945 200.002 38.7945H199.828V41.0155H198.96V35.965H199.828Z" fill="white"/>
<path d="M204.639 35.965V38.0883C204.639 38.8878 204.639 39.3853 204.592 40.1049H204.622C204.917 39.4919 205.087 39.141 205.412 38.5547L206.949 35.9561H207.983V41.011H207.114V38.8656C207.114 38.0438 207.114 37.6174 207.175 36.809H207.145C206.828 37.4531 206.615 37.8573 206.328 38.3681C205.859 39.1499 205.321 40.1138 204.791 41.0021H203.767V35.965H204.639Z" fill="white"/>
</g>
<defs>
<clipPath id="clip0_414_1405">
<rect width="208" height="43.5972" fill="white" transform="translate(0 -0.298615)"/>
</clipPath>
</defs>
</svg>
