<svg width="26" height="26" viewBox="0 0 26 26" fill="none" xmlns="http://www.w3.org/2000/svg">
<path d="M21.6665 4.33333H4.33317C3.1415 4.33333 2.17734 5.30833 2.17734 6.5L2.1665 19.5C2.1665 20.6917 3.1415 21.6667 4.33317 21.6667H21.6665C22.8582 21.6667 23.8332 20.6917 23.8332 19.5V6.5C23.8332 5.30833 22.8582 4.33333 21.6665 4.33333ZM21.2332 8.9375L13.574 13.7258C13.2273 13.9425 12.7723 13.9425 12.4257 13.7258L4.7665 8.9375C4.65788 8.87652 4.56275 8.79413 4.48688 8.69532C4.41102 8.59652 4.35599 8.48334 4.32513 8.36265C4.29427 8.24196 4.28822 8.11626 4.30734 7.99316C4.32646 7.87007 4.37037 7.75213 4.43639 7.64649C4.50242 7.54085 4.58919 7.44971 4.69146 7.37858C4.79373 7.30744 4.90936 7.2578 5.03137 7.23266C5.15338 7.20751 5.27923 7.20738 5.40129 7.23228C5.52335 7.25717 5.63909 7.30658 5.7415 7.3775L12.9998 11.9167L20.2582 7.3775C20.3606 7.30658 20.4763 7.25717 20.5984 7.23228C20.7204 7.20738 20.8463 7.20751 20.9683 7.23266C21.0903 7.2578 21.2059 7.30744 21.3082 7.37858C21.4105 7.44971 21.4973 7.54085 21.5633 7.64649C21.6293 7.75213 21.6732 7.87007 21.6923 7.99316C21.7115 8.11626 21.7054 8.24196 21.6745 8.36265C21.6437 8.48334 21.5887 8.59652 21.5128 8.69532C21.4369 8.79413 21.3418 8.87652 21.2332 8.9375Z" fill="#00CF9D"/>
</svg>
