<svg width="26" height="26" viewBox="0 0 26 26" fill="none" xmlns="http://www.w3.org/2000/svg">
<path d="M13 2.4375C7.16676 2.4375 2.4375 7.16676 2.4375 13C2.4375 18.8332 7.16676 23.5625 13 23.5625C18.8332 23.5625 23.5625 18.8332 23.5625 13C23.5625 7.16676 18.8332 2.4375 13 2.4375ZM17.875 14.625H13C12.7845 14.625 12.5778 14.5394 12.4255 14.387C12.2731 14.2347 12.1875 14.028 12.1875 13.8125V6.5C12.1875 6.28451 12.2731 6.07785 12.4255 5.92548C12.5778 5.7731 12.7845 5.6875 13 5.6875C13.2155 5.6875 13.4222 5.7731 13.5745 5.92548C13.7269 6.07785 13.8125 6.28451 13.8125 6.5V13H17.875C18.0905 13 18.2972 13.0856 18.4495 13.238C18.6019 13.3903 18.6875 13.597 18.6875 13.8125C18.6875 14.028 18.6019 14.2347 18.4495 14.387C18.2972 14.5394 18.0905 14.625 17.875 14.625Z" fill="#00CF9D"/>
</svg>
