<svg width="30" height="30" viewBox="0 0 30 30" fill="none" xmlns="http://www.w3.org/2000/svg">
<path d="M4.1875 14.5313V10.0813C4.1875 9.74973 4.3192 9.43179 4.55362 9.19737C4.78804 8.96295 5.10598 8.83125 5.4375 8.83125H25.9375C26.269 8.83125 26.587 8.96295 26.8214 9.19737C27.0558 9.43179 27.1875 9.74973 27.1875 10.0813V24.4563C27.1875 24.7878 27.0558 25.1057 26.8214 25.3401C26.587 25.5746 26.269 25.7063 25.9375 25.7063H5.4375C5.10598 25.7063 4.78804 25.5746 4.55362 25.3401C4.3192 25.1057 4.1875 24.7878 4.1875 24.4563V20" stroke="black" stroke-linecap="round" stroke-linejoin="round"/>
<path d="M3.4375 14.5312H10.625C10.9565 14.5312 11.2745 14.6629 11.5089 14.8974C11.7433 15.1318 11.875 15.4497 11.875 15.7812V18.75C11.875 19.0815 11.7433 19.3995 11.5089 19.6339C11.2745 19.8683 10.9565 20 10.625 20H3.4375C3.27174 20 3.11277 19.9342 2.99556 19.8169C2.87835 19.6997 2.8125 19.5408 2.8125 19.375V15.1562C2.8125 14.9905 2.87835 14.8315 2.99556 14.7143C3.11277 14.5971 3.27174 14.5312 3.4375 14.5312Z" stroke="black" stroke-linecap="round" stroke-linejoin="round"/>
<path d="M9.05615 18.5188C9.74651 18.5188 10.3062 17.9591 10.3062 17.2688C10.3062 16.5784 9.74651 16.0188 9.05615 16.0188C8.3658 16.0188 7.80615 16.5784 7.80615 17.2688C7.80615 17.9591 8.3658 18.5188 9.05615 18.5188Z" stroke="black" stroke-linecap="round" stroke-linejoin="round"/>
<path d="M23.825 8.83125L8.2438 4.29375L6.92505 8.83125" stroke="black" stroke-linecap="round" stroke-linejoin="round"/>
</svg>
