<svg width="72" height="72" viewBox="0 0 72 72" fill="none" xmlns="http://www.w3.org/2000/svg">
<path d="M66.3345 19.4041L43.8345 7.0291C43.5023 6.84633 43.1292 6.75049 42.75 6.75049C42.3708 6.75049 41.9978 6.84633 41.6655 7.0291L19.1655 19.4041C18.8128 19.5983 18.5186 19.8837 18.3137 20.2304C18.1088 20.5771 18.0007 20.9724 18.0007 21.3751C18.0007 21.7778 18.1088 22.1731 18.3137 22.5198C18.5186 22.8665 18.8128 23.1519 19.1655 23.3461L40.5 35.0799V59.1976L33.669 55.4401L31.5 59.3799L41.6655 64.9711C41.9976 65.1543 42.3708 65.2504 42.75 65.2504C43.1293 65.2504 43.5024 65.1543 43.8345 64.9711L66.3345 52.5961C66.6874 52.402 66.9818 52.1167 67.1868 51.77C67.3918 51.4233 67.5 51.0279 67.5 50.6251V21.3751C67.5 20.9723 67.3918 20.577 67.1868 20.2303C66.9818 19.8836 66.6874 19.5982 66.3345 19.4041ZM42.75 11.5696L60.5813 21.3751L42.75 31.1806L24.9188 21.3751L42.75 11.5696ZM63 49.2954L45 59.1954V35.0776L63 25.1776V49.2954Z" fill="#00CF9D"/>
<path d="M22.5 36H4.5V31.5H22.5V36ZM27 54H9V49.5H27V54ZM31.5 45H13.5V40.5H31.5V45Z" fill="#00CF9D"/>
</svg>
