<svg width="27" height="27" viewBox="0 0 27 27" fill="none" xmlns="http://www.w3.org/2000/svg">
<g clip-path="url(#clip0_17_21363)">
<path d="M26.6248 22.4516L22.8181 26.2278C22.2562 26.804 21.5114 26.9993 20.786 27.0001C17.5782 26.904 14.546 25.3283 12.0564 23.7103C7.96995 20.7374 4.22042 17.0511 1.86714 12.5964C0.964579 10.7283 -0.094451 8.3449 0.00673155 6.25984C0.0157541 5.47549 0.227119 4.7057 0.779517 4.20013L4.5862 0.395354C5.37667 -0.277013 6.14111 -0.0445432 6.64695 0.738637L9.70945 6.54593C10.0318 7.23391 9.84688 7.97106 9.36597 8.46266L7.9635 9.86441C7.87692 9.98301 7.82179 10.118 7.8204 10.2649C8.35819 12.3467 9.98744 14.2654 11.4267 15.5859C12.866 16.9063 14.413 18.6953 16.4212 19.1188C16.6694 19.1881 16.9735 19.2124 17.1511 19.0473L18.7825 17.3881C19.3449 16.9618 20.157 16.7535 20.7574 17.102H20.786L26.31 20.3632C27.1209 20.8716 27.2055 21.8539 26.6248 22.4516Z" fill="#00CF9D"/>
</g>
<defs>
<clipPath id="clip0_17_21363">
<rect width="27" height="27" fill="white"/>
</clipPath>
</defs>
</svg>
