<svg width="17" height="21" viewBox="0 0 17 21" fill="none" xmlns="http://www.w3.org/2000/svg">
<path d="M16.278 9.50362C15.8092 8.47804 15.1277 7.55754 14.2761 6.79969L13.5734 6.173C13.5496 6.1523 13.5208 6.13762 13.4898 6.13023C13.4587 6.12284 13.4263 6.12298 13.3953 6.13062C13.3643 6.13827 13.3357 6.1532 13.312 6.17409C13.2884 6.19498 13.2703 6.22121 13.2595 6.25046L12.9456 7.12595C12.75 7.67518 12.3902 8.23615 11.8807 8.78773C11.8469 8.82294 11.8082 8.83233 11.7817 8.83468C11.7551 8.83702 11.714 8.83233 11.6778 8.79947C11.644 8.7713 11.6271 8.72906 11.6295 8.68681C11.7189 7.27382 11.2842 5.6801 10.3328 3.94555C9.54559 2.50439 8.4517 1.3801 7.08494 0.59615L6.08764 0.0257909C5.95724 -0.0493182 5.79062 0.0492624 5.79786 0.197133L5.85099 1.32377C5.88721 2.09364 5.79545 2.77431 5.57812 3.33998C5.31249 4.03239 4.93096 4.67551 4.44318 5.25291C4.10372 5.65419 3.71897 6.01715 3.29616 6.33495C2.27787 7.09582 1.44986 8.07076 0.874147 9.18675C0.299851 10.3125 0.000700672 11.5519 0 12.8084C0 13.9163 0.224574 14.9889 0.668891 16.0006C1.09791 16.9745 1.71704 17.8585 2.49204 18.6036C3.27443 19.3546 4.18238 19.9461 5.19417 20.3569C6.24218 20.7841 7.35298 21 8.49999 21C9.64701 21 10.7578 20.7841 11.8058 20.3592C12.8151 19.9509 13.7329 19.3553 14.5079 18.6059C15.2903 17.8548 15.9037 16.977 16.3311 16.0029C16.7747 14.994 17.0023 13.9079 17 12.8108C17 11.6653 16.7585 10.5528 16.278 9.50362V9.50362Z" fill="#00FFC2"/>
</svg>
