<svg width="24" height="24" viewBox="0 0 24 24" fill="none" xmlns="http://www.w3.org/2000/svg">
<path d="M17.6131 15.5158C19.0656 13.5338 19.7161 11.0765 19.4346 8.63549C19.1531 6.19448 17.9602 3.94978 16.0948 2.35046C14.2293 0.751151 11.8287 -0.0848254 9.37338 0.00978434C6.91801 0.104394 4.5889 1.12261 2.85203 2.86073C1.11515 4.59885 0.0986018 6.92868 0.0057491 9.38412C-0.0871036 11.8396 0.75059 14.2395 2.35124 16.1038C3.95189 17.9682 6.19744 19.1594 8.63865 19.4391C11.0799 19.7189 13.5367 19.0666 15.5176 17.6128H15.5161C15.5611 17.6728 15.6091 17.7298 15.6631 17.7853L21.4381 23.5603C21.7194 23.8417 22.1009 23.9999 22.4988 24.0001C22.8967 24.0002 23.2784 23.8423 23.5599 23.561C23.8413 23.2798 23.9995 22.8982 23.9997 22.5003C23.9998 22.1024 23.8419 21.7207 23.5606 21.4393L17.7856 15.6643C17.732 15.61 17.6743 15.5598 17.6131 15.5143V15.5158ZM18.0001 9.74977C18.0001 10.8332 17.7867 11.906 17.3721 12.9069C16.9575 13.9078 16.3498 14.8173 15.5838 15.5834C14.8177 16.3495 13.9082 16.9572 12.9073 17.3718C11.9063 17.7864 10.8335 17.9998 9.75013 17.9998C8.66672 17.9998 7.59392 17.7864 6.59299 17.3718C5.59205 16.9572 4.68258 16.3495 3.91649 15.5834C3.15041 14.8173 2.54272 13.9078 2.12812 12.9069C1.71352 11.906 1.50013 10.8332 1.50013 9.74977C1.50013 7.56173 2.36932 5.46331 3.9165 3.91614C5.46367 2.36896 7.56209 1.49977 9.75013 1.49977C11.9382 1.49977 14.0366 2.36896 15.5838 3.91614C17.1309 5.46331 18.0001 7.56173 18.0001 9.74977Z" fill="#333333"/>
</svg>
