<svg width="14" height="16" viewBox="0 0 14 16" fill="none" xmlns="http://www.w3.org/2000/svg">
<path d="M11.3103 10.2921C10.9076 10.2943 10.5106 10.3923 10.1484 10.579C9.78619 10.7657 9.46814 11.0364 9.21769 11.3709L5.28533 8.76241C5.42865 8.27163 5.42865 7.74632 5.28533 7.25554L9.21769 4.64704C9.61681 5.17143 10.178 5.52901 10.8018 5.65642C11.4256 5.78384 12.0718 5.67288 12.6258 5.34319C13.1799 5.01349 13.6061 4.48636 13.829 3.85516C14.0519 3.22395 14.057 2.52943 13.8434 1.89461C13.6299 1.25979 13.2115 0.72565 12.6623 0.386814C12.1132 0.0479776 11.4687 -0.0736863 10.8431 0.0433743C10.2175 0.160435 9.65114 0.508664 9.24435 1.02637C8.83755 1.54409 8.61658 2.19786 8.62057 2.87189C8.62311 3.12713 8.65933 3.38074 8.72816 3.62533L4.7958 6.23383C4.44864 5.77011 3.97412 5.43247 3.43801 5.26771C2.9019 5.10295 2.33077 5.11923 1.80377 5.3143C1.27678 5.50936 0.820026 5.87355 0.496829 6.35638C0.173632 6.8392 0 7.41676 0 8.00898C0 8.6012 0.173632 9.17875 0.496829 9.66158C0.820026 10.1444 1.27678 10.5086 1.80377 10.7037C2.33077 10.8987 2.9019 10.915 3.43801 10.7502C3.97412 10.5855 4.44864 10.2478 4.7958 9.78412L8.72816 12.3926C8.65933 12.6372 8.62311 12.8908 8.62057 13.1461C8.62057 13.7105 8.77832 14.2623 9.07387 14.7316C9.36942 15.201 9.7895 15.5667 10.281 15.7828C10.7725 15.9988 11.3133 16.0553 11.835 15.9452C12.3568 15.835 12.836 15.5632 13.2122 15.1641C13.5884 14.765 13.8445 14.2564 13.9483 13.7028C14.0521 13.1492 13.9988 12.5754 13.7953 12.0539C13.5917 11.5324 13.2469 11.0867 12.8046 10.7731C12.3623 10.4595 11.8423 10.2921 11.3103 10.2921ZM11.3103 1.15953C11.6295 1.15953 11.9415 1.25996 12.2069 1.44811C12.4723 1.63627 12.6791 1.9037 12.8013 2.2166C12.9234 2.52949 12.9554 2.87379 12.8931 3.20596C12.8308 3.53812 12.6771 3.84324 12.4514 4.08271C12.2257 4.32219 11.9382 4.48528 11.6251 4.55135C11.3121 4.61742 10.9876 4.58351 10.6927 4.45391C10.3978 4.3243 10.1458 4.10482 9.96844 3.82323C9.79111 3.54163 9.69646 3.21056 9.69646 2.87189C9.69646 2.41774 9.86649 1.9822 10.1691 1.66107C10.4718 1.33994 10.8823 1.15953 11.3103 1.15953ZM2.70321 9.72134C2.38402 9.72134 2.07201 9.62091 1.80661 9.43275C1.54122 9.2446 1.33437 8.97716 1.21223 8.66427C1.09008 8.35138 1.05812 8.00708 1.12039 7.67491C1.18266 7.34274 1.33636 7.03763 1.56206 6.79815C1.78776 6.55867 2.07531 6.39559 2.38837 6.32952C2.70142 6.26344 3.0259 6.29736 3.32079 6.42696C3.61568 6.55656 3.86773 6.77604 4.04506 7.05764C4.22238 7.33923 4.31703 7.6703 4.31703 8.00898C4.31703 8.46312 4.14701 8.89867 3.84436 9.2198C3.5417 9.54093 3.13122 9.72134 2.70321 9.72134ZM11.3103 14.8584C10.9911 14.8584 10.6791 14.758 10.4137 14.5698C10.1483 14.3817 9.94145 14.1142 9.8193 13.8014C9.69716 13.4885 9.6652 13.1442 9.72747 12.812C9.78974 12.4798 9.94344 12.1747 10.1691 11.9352C10.3948 11.6958 10.6824 11.5327 10.9954 11.4666C11.3085 11.4005 11.633 11.4344 11.9279 11.564C12.2228 11.6937 12.4748 11.9131 12.6521 12.1947C12.8295 12.4763 12.9241 12.8074 12.9241 13.1461C12.9241 13.6002 12.7541 14.0358 12.4514 14.3569C12.1488 14.678 11.7383 14.8584 11.3103 14.8584Z" fill="black"/>
</svg>
