<svg width="50" height="50" viewBox="0 0 50 50" fill="none" xmlns="http://www.w3.org/2000/svg">
<path d="M15.625 46.875C17.3509 46.875 18.75 45.4759 18.75 43.75C18.75 42.0241 17.3509 40.625 15.625 40.625C13.8991 40.625 12.5 42.0241 12.5 43.75C12.5 45.4759 13.8991 46.875 15.625 46.875Z" fill="black"/>
<path d="M37.5 46.875C39.2259 46.875 40.625 45.4759 40.625 43.75C40.625 42.0241 39.2259 40.625 37.5 40.625C35.7741 40.625 34.375 42.0241 34.375 43.75C34.375 45.4759 35.7741 46.875 37.5 46.875Z" fill="black"/>
<path d="M7.78125 4.38125C7.71048 4.02717 7.51926 3.70853 7.2401 3.47951C6.96094 3.25049 6.61108 3.12522 6.25 3.125H0V6.25H4.96875L10.9688 36.2437C11.0395 36.5978 11.2307 36.9165 11.5099 37.1455C11.7891 37.3745 12.1389 37.4998 12.5 37.5H40.625V34.375H13.7812L12.5313 28.125H40.625C40.9804 28.1249 41.3252 28.0037 41.6025 27.7813C41.8797 27.5588 42.0729 27.2485 42.15 26.9016L45.6937 10.9375H42.4953L39.3719 25H11.9062L7.78125 4.38125Z" fill="black"/>
<path d="M33.7281 10.2906L28.125 15.8938V3.125H25V15.8938L19.3969 10.2906L17.1875 12.5L26.5625 21.875L35.9375 12.5L33.7281 10.2906Z" fill="#00FFC2"/>
</svg>
