<svg width="32" height="32" viewBox="0 0 32 32" fill="none" xmlns="http://www.w3.org/2000/svg">
<path d="M28.9257 16.667L26.14 10.2891C26.0689 10.1245 25.95 9.98395 25.7981 9.88512C25.6462 9.78628 25.468 9.73351 25.2857 9.73336H22.5V7.91112C22.5 7.66948 22.4022 7.43773 22.228 7.26686C22.0539 7.09599 21.8177 7 21.5714 7H3.92857C3.6823 7 3.44611 7.09599 3.27197 7.26686C3.09783 7.43773 3 7.66948 3 7.91112V23.4002C3 23.6418 3.09783 23.8736 3.27197 24.0444C3.44611 24.2153 3.6823 24.3113 3.92857 24.3113H5.91571C6.12955 25.0833 6.59636 25.7649 7.24413 26.2508C7.89189 26.7367 8.68462 27 9.5 27C10.3154 27 11.1081 26.7367 11.7559 26.2508C12.4036 25.7649 12.8705 25.0833 13.0843 24.3113H18.9157C19.1295 25.0833 19.5964 25.7649 20.2441 26.2508C20.8919 26.7367 21.6846 27 22.5 27C23.3154 27 24.1081 26.7367 24.7559 26.2508C25.4036 25.7649 25.8705 25.0833 26.0843 24.3113H28.0714C28.3177 24.3113 28.5539 24.2153 28.728 24.0444C28.9022 23.8736 29 23.6418 29 23.4002V17.0223C28.9998 16.9002 28.9745 16.7793 28.9257 16.667ZM22.5 11.5556H24.6729L26.66 16.1112H22.5V11.5556ZM9.5 25.2224C9.13269 25.2224 8.77363 25.1155 8.46823 24.9153C8.16282 24.7151 7.92479 24.4305 7.78422 24.0975C7.64366 23.7645 7.60688 23.3981 7.67854 23.0447C7.7502 22.6912 7.92708 22.3665 8.1868 22.1116C8.44653 21.8568 8.77744 21.6832 9.13769 21.6129C9.49794 21.5426 9.87135 21.5787 10.2107 21.7166C10.55 21.8546 10.8401 22.0881 11.0442 22.3878C11.2482 22.6874 11.3571 23.0398 11.3571 23.4002C11.3571 23.8835 11.1615 24.3469 10.8132 24.6887C10.4649 25.0304 9.99254 25.2224 9.5 25.2224ZM18.9157 22.489H13.0843C12.8705 21.717 12.4036 21.0354 11.7559 20.5495C11.1081 20.0636 10.3154 19.8003 9.5 19.8003C8.68462 19.8003 7.89189 20.0636 7.24413 20.5495C6.59636 21.0354 6.12955 21.717 5.91571 22.489H4.85714V8.82224H20.6429V20.2659C20.22 20.5067 19.8498 20.827 19.5534 21.2085C19.257 21.59 19.0403 22.0252 18.9157 22.489ZM22.5 25.2224C22.1327 25.2224 21.7736 25.1155 21.4682 24.9153C21.1628 24.7151 20.9248 24.4305 20.7842 24.0975C20.6437 23.7645 20.6069 23.3981 20.6785 23.0447C20.7502 22.6912 20.9271 22.3665 21.1868 22.1116C21.4465 21.8568 21.7774 21.6832 22.1377 21.6129C22.4979 21.5426 22.8713 21.5787 23.2107 21.7166C23.55 21.8546 23.8401 22.0881 24.0442 22.3878C24.2482 22.6874 24.3571 23.0398 24.3571 23.4002C24.3571 23.8835 24.1615 24.3469 23.8132 24.6887C23.4649 25.0304 22.9925 25.2224 22.5 25.2224ZM27.1429 22.489H26.0843C25.8789 21.7087 25.4158 21.0171 24.7672 20.5226C24.1187 20.028 23.3214 19.7583 22.5 19.7557V17.9334H27.1429V22.489Z" fill="black"/>
</svg>
